<?xml version="1.0" encoding="UTF-8"?>
<!DOCTYPE svg PUBLIC "-//W3C//DTD SVG 1.1//EN" "http://www.w3.org/Graphics/SVG/1.1/DTD/svg11.dtd">
<!-- Creator: CorelDRAW X8 -->
<svg xmlns="http://www.w3.org/2000/svg" xml:space="preserve" width="66.1458mm" height="66.1458mm" version="1.1" style="shape-rendering:geometricPrecision; text-rendering:geometricPrecision; image-rendering:optimizeQuality; fill-rule:evenodd; clip-rule:evenodd"
viewBox="0 0 6615 6615"
 xmlns:xlink="http://www.w3.org/1999/xlink">
 <defs>
  <style type="text/css">
   <![CDATA[
    .str0 {stroke:#8DC4F3;stroke-width:47.63}
    .str1 {stroke:#8DC4F3;stroke-width:63.5}
    .fil1 {fill:none}
    .fil10 {fill:#42CDAD}
    .fil8 {fill:#656C8A}
    .fil4 {fill:#8DC4F3}
    .fil3 {fill:#CCE3F7}
    .fil6 {fill:#DBE8F0}
    .fil11 {fill:#E8F4FF}
    .fil0 {fill:#F3F9FF}
    .fil7 {fill:#F4F5FB}
    .fil9 {fill:#F5EF93}
    .fil5 {fill:#FEFEFE}
    .fil2 {fill:white}
   ]]>
  </style>
 </defs>
 <g id="Layer_x0020_1">
  <metadata id="CorelCorpID_0Corel-Layer"/>
  <g id="_584823434592">
   <ellipse id="Oval-16-Copy-3" class="fil0" cx="3341" cy="3307" rx="2883" ry="2878"/>
   <rect id="Rectangle-10" class="fil1 str0" x="12" y="1666" width="2633" height="1009"/>
   <polygon id="Rectangle-11" class="fil2" points="37,1694 2618,1693 2621,2649 38,2650 "/>
   <polygon id="Rectangle-11-Copy" class="fil3" points="37,1693 2618,1693 2619,1959 38,1960 "/>
   <path id="Fill-203" class="fil4" d="M160 1871l0 0c19,0 34,-15 34,-34l0 -1c0,-19 -15,-34 -34,-34 -18,0 -33,15 -33,34l0 1c0,19 15,34 33,34z"/>
   <path id="Fill-204" class="fil4" d="M293 1871l0 0c19,0 34,-15 34,-34l0 -1c0,-19 -15,-34 -34,-34 -19,0 -34,15 -34,34l0 1c0,19 15,34 34,34z"/>
   <path id="Fill-205" class="fil4" d="M425 1871l0 0c19,0 34,-15 34,-34l0 -1c0,-19 -15,-34 -34,-34 -18,0 -33,15 -33,34l0 1c0,19 15,34 33,34z"/>
   <polygon id="Fill-208" class="fil4" points="789,2254 1704,2254 1704,2201 789,2201 "/>
   <polygon id="Fill-208-Copy" class="fil4" points="789,2432 1704,2432 1704,2378 789,2378 "/>
   <polygon id="Fill-209" class="fil3" points="2035,2521 2486,2521 2486,2068 2035,2068 "/>
   <polyline id="Path-2" class="fil1 str1" points="2118,2313 2207,2402 2411,2198 "/>
   <path id="Fill-1" class="fil5" d="M390 2538c-133,0 -241,-113 -241,-253 0,-139 108,-253 241,-253 134,0 242,114 242,253 0,140 -108,253 -242,253z"/>
   <g>
    <path id="Fill-3" class="fil4" d="M390 2055c121,0 220,104 220,230 0,127 -99,230 -220,230 -121,0 -219,-103 -219,-230 0,-126 98,-230 219,-230l0 0zm-263 230c0,153 118,276 263,276 146,0 264,-123 264,-276 0,-152 -118,-276 -264,-276 -145,0 -263,124 -263,276z"/>
   </g>
   <path id="Fill-6" class="fil6" d="M298 2253c0,54 41,97 92,97 52,0 93,-43 93,-97 0,-54 -41,-97 -93,-97 -51,0 -92,43 -92,97z"/>
   <path id="Fill-8" class="fil4" d="M298 2253l-22 0c0,66 51,120 114,120 64,0 115,-54 115,-120 0,-66 -51,-120 -115,-120 -63,0 -114,54 -114,120l44 0c0,-20 8,-39 21,-52 12,-14 30,-22 49,-22 20,0 37,8 50,22 13,13 21,32 21,52 0,20 -8,39 -21,52 -13,14 -30,22 -50,22 -19,0 -37,-8 -49,-22 -13,-13 -21,-32 -21,-52l-22 0z"/>
   <path id="Fill-10" class="fil6" d="M321 2361l139 0c51,0 92,43 92,97l0 8c-42,41 -99,67 -162,67 -62,0 -119,-26 -162,-67l0 -8c0,-54 42,-97 93,-97z"/>
   <path id="Fill-12" class="fil4" d="M321 2361l0 23 139 0c19,0 37,8 50,21 13,14 20,32 20,53l0 8 0 -10 7 -7c-38,38 -90,61 -147,61 -57,0 -108,-23 -147,-61l7 9 0 8 0 -8c0,-21 8,-39 21,-53 13,-13 30,-21 50,-21l0 -46c-63,0 -115,53 -115,120l0 8 0 10 7 6c46,46 109,74 177,74 69,0 131,-28 178,-74l7 -6 0 -18c0,-67 -52,-120 -115,-120l-139 0 0 23z"/>
   <rect id="Rectangle-10_0" class="fil1 str0" x="12" y="2906" width="2633" height="1009"/>
   <polygon id="Rectangle-11_1" class="fil2" points="37,2933 2618,2933 2621,3889 38,3889 "/>
   <polygon id="Rectangle-11-Copy_2" class="fil3" points="37,2933 2618,2933 2619,3199 38,3199 "/>
   <path id="Fill-203_3" class="fil4" d="M160 3111l0 0c19,0 34,-15 34,-34l0 -1c0,-19 -15,-34 -34,-34 -18,0 -33,15 -33,34l0 1c0,19 15,34 33,34z"/>
   <path id="Fill-204_4" class="fil4" d="M293 3111l0 0c19,0 34,-15 34,-34l0 -1c0,-19 -15,-34 -34,-34 -19,0 -34,15 -34,34l0 1c0,19 15,34 34,34z"/>
   <path id="Fill-205_5" class="fil4" d="M425 3111l0 0c19,0 34,-15 34,-34l0 -1c0,-19 -15,-34 -34,-34 -18,0 -33,15 -33,34l0 1c0,19 15,34 33,34z"/>
   <polygon id="Fill-208_6" class="fil4" points="789,3494 1704,3494 1704,3441 789,3441 "/>
   <polygon id="Fill-208-Copy_7" class="fil4" points="789,3671 1704,3671 1704,3618 789,3618 "/>
   <polygon id="Fill-209_8" class="fil3" points="2035,3760 2486,3760 2486,3308 2035,3308 "/>
   <polyline id="Path-2_9" class="fil1 str1" points="2118,3553 2207,3642 2411,3438 "/>
   <path id="Fill-1_10" class="fil5" d="M390 3778c-133,0 -241,-114 -241,-253 0,-139 108,-253 241,-253 134,0 242,114 242,253 0,139 -108,253 -242,253z"/>
   <g>
    <path id="Fill-3_11" class="fil4" d="M390 3295c121,0 220,103 220,230 0,127 -99,230 -220,230 -121,0 -219,-103 -219,-230 0,-127 98,-230 219,-230l0 0zm-263 230c0,152 118,276 263,276 146,0 264,-124 264,-276 0,-152 -118,-276 -264,-276 -145,0 -263,124 -263,276z"/>
   </g>
   <path id="Fill-6_12" class="fil6" d="M298 3493c0,53 41,97 92,97 52,0 93,-44 93,-97 0,-54 -41,-97 -93,-97 -51,0 -92,43 -92,97z"/>
   <path id="Fill-8_13" class="fil4" d="M298 3493l-22 0c0,66 51,120 114,120 64,0 115,-54 115,-120 0,-67 -51,-120 -115,-120 -63,0 -114,53 -114,120l44 0c0,-21 8,-39 21,-53 12,-13 30,-21 49,-21 20,0 37,8 50,21 13,14 21,32 21,53 0,20 -8,38 -21,52 -13,13 -30,22 -50,22 -19,0 -37,-9 -49,-22 -13,-14 -21,-32 -21,-52l-22 0z"/>
   <path id="Fill-10_14" class="fil6" d="M321 3600l139 0c51,0 92,44 92,97l0 8c-42,42 -99,68 -162,68 -62,0 -119,-26 -162,-68l0 -8c0,-53 42,-97 93,-97z"/>
   <path id="Fill-12_15" class="fil4" d="M321 3600l0 24 139 0c19,0 37,8 50,21 13,14 20,32 20,52l0 8 0 -10 7 -7c-38,38 -90,62 -147,62 -57,0 -108,-24 -147,-62l7 9 0 8 0 -8c0,-20 8,-38 21,-52 13,-13 30,-21 50,-21l0 -47c-63,0 -115,54 -115,120l0 8 0 10 7 7c46,46 109,74 177,74 69,0 131,-28 178,-74l7 -7 0 -18c0,-66 -52,-120 -115,-120l-139 0 0 23z"/>
   <rect id="Rectangle-10_16" class="fil1 str0" x="12" y="4116" width="2633" height="1009"/>
   <polygon id="Rectangle-11_17" class="fil2" points="37,4144 2618,4143 2621,5099 38,5099 "/>
   <polygon id="Rectangle-11-Copy_18" class="fil3" points="37,4143 2618,4143 2619,4409 38,4409 "/>
   <path id="Fill-203_19" class="fil4" d="M160 4321l0 0c19,0 34,-15 34,-34l0 -1c0,-19 -15,-34 -34,-34 -18,0 -33,15 -33,34l0 1c0,19 15,34 33,34z"/>
   <path id="Fill-204_20" class="fil4" d="M293 4321l0 0c19,0 34,-15 34,-34l0 -1c0,-19 -15,-34 -34,-34 -19,0 -34,15 -34,34l0 1c0,19 15,34 34,34z"/>
   <path id="Fill-205_21" class="fil4" d="M425 4321l0 0c19,0 34,-15 34,-34l0 -1c0,-19 -15,-34 -34,-34 -18,0 -33,15 -33,34l0 1c0,19 15,34 33,34z"/>
   <polygon id="Fill-208_22" class="fil4" points="789,4704 1704,4704 1704,4651 789,4651 "/>
   <polygon id="Fill-208-Copy_23" class="fil4" points="789,4881 1704,4881 1704,4828 789,4828 "/>
   <polygon id="Fill-209_24" class="fil3" points="2035,4970 2486,4970 2486,4518 2035,4518 "/>
   <polyline id="Path-2_25" class="fil1 str1" points="2118,4763 2207,4852 2411,4648 "/>
   <path id="Fill-1_26" class="fil5" d="M390 4988c-133,0 -241,-113 -241,-253 0,-139 108,-253 241,-253 134,0 242,114 242,253 0,140 -108,253 -242,253z"/>
   <g>
    <path id="Fill-3_27" class="fil4" d="M390 4505c121,0 220,103 220,230 0,127 -99,230 -220,230 -121,0 -219,-103 -219,-230 0,-127 98,-230 219,-230l0 0zm-263 230c0,153 118,276 263,276 146,0 264,-123 264,-276 0,-152 -118,-276 -264,-276 -145,0 -263,124 -263,276z"/>
   </g>
   <path id="Fill-6_28" class="fil6" d="M298 4703c0,53 41,97 92,97 52,0 93,-44 93,-97 0,-54 -41,-97 -93,-97 -51,0 -92,43 -92,97z"/>
   <path id="Fill-8_29" class="fil4" d="M298 4703l-22 0c0,66 51,120 114,120 64,0 115,-54 115,-120 0,-66 -51,-120 -115,-120 -63,0 -114,54 -114,120l44 0c0,-21 8,-39 21,-52 12,-14 30,-22 49,-22 20,0 37,8 50,22 13,13 21,31 21,52 0,20 -8,39 -21,52 -13,13 -30,22 -50,22 -19,0 -37,-9 -49,-22 -13,-13 -21,-32 -21,-52l-22 0z"/>
   <path id="Fill-10_30" class="fil6" d="M321 4811l139 0c51,0 92,43 92,97l0 7c-42,42 -99,68 -162,68 -62,0 -119,-26 -162,-68l0 -7c0,-54 42,-97 93,-97z"/>
   <path id="Fill-12_31" class="fil4" d="M321 4811l0 23 139 0c19,0 37,8 50,21 13,14 20,32 20,53l0 7 0 -9 7 -7c-38,38 -90,61 -147,61 -57,0 -108,-23 -147,-61l7 9 0 7 0 -7c0,-21 8,-39 21,-53 13,-13 30,-21 50,-21l0 -47c-63,0 -115,54 -115,121l0 7 0 10 7 7c46,46 109,74 177,74 69,0 131,-28 178,-74l7 -7 0 -17c0,-67 -52,-121 -115,-121l-139 0 0 24z"/>
   <path id="Fill-1_32" class="fil4" d="M5034 1970l-24 0c0,165 -67,314 -175,422 -108,108 -258,175 -423,175 -165,0 -315,-67 -423,-175 -108,-108 -175,-257 -175,-422 0,-165 67,-314 175,-422 108,-108 258,-175 423,-175 165,0 315,67 423,175 108,108 175,257 175,422l48 0c0,-356 -289,-644 -646,-644 -356,0 -645,288 -645,644 0,356 289,644 645,644 357,0 646,-288 646,-644l-24 0z"/>
   <path id="Fill-3_33" class="fil4" d="M4773 1970l-23 0c0,168 -39,319 -100,427 -30,54 -66,97 -104,126 -39,29 -80,44 -122,44 -43,0 -84,-15 -122,-44 -58,-43 -110,-118 -146,-214 -37,-96 -58,-213 -58,-339 0,-168 38,-319 99,-427 30,-54 66,-97 105,-126 38,-29 79,-44 122,-44 42,0 83,15 122,44 57,43 109,118 146,214 36,96 58,213 58,339l47 0c0,-175 -40,-334 -105,-450 -33,-59 -73,-107 -118,-141 -45,-34 -96,-53 -150,-53 -54,0 -106,19 -151,53 -67,51 -122,134 -161,236 -39,102 -62,224 -62,355 0,175 40,334 106,450 33,59 72,107 117,141 45,34 97,53 151,53 54,0 105,-19 150,-53 68,-51 123,-134 162,-236 39,-102 61,-224 61,-355l-24 0z"/>
   <polygon id="Fill-5" class="fil4" points="3790,2010 5067,2010 5067,1963 3790,1963 "/>
   <polygon id="Fill-7" class="fil4" points="3861,1680 4943,1680 4943,1632 3861,1632 "/>
   <polygon id="Fill-8_34" class="fil4" points="3909,2317 4939,2317 4939,2269 3909,2269 "/>
   <polygon id="Fill-9" class="fil4" points="4405,2623 4452,2623 4452,1349 4405,1349 "/>
   <polygon id="Fill-51" class="fil4" points="2112,2626 2247,2761 2383,2626 2333,2576 2248,2661 2162,2576 2112,2626 "/>
   <polygon id="Fill-52" class="fil4" points="2230,2694 2301,2694 2301,2482 2230,2482 "/>
   <polygon id="Fill-58" class="fil4" points="2100,1204 2064,1171 292,1169 292,806 2065,806 2065,1171 2100,1204 2100,1169 2100,1204 2136,1204 2136,735 221,735 221,1240 2136,1240 2136,1204 "/>
   <polygon id="Fill-53" class="fil2" points="269,1186 2072,1186 2072,787 269,787 "/>
   <polygon id="Fill-54" class="fil3" points="1639,1186 2086,1186 2086,787 1639,787 "/>
   <polygon id="Fill-57" class="fil4" points="1900,1052 1970,1123 2004,1089 1933,1019 "/>
   <path id="Fill-56" class="fil4" d="M1947 971l-24 0c0,39 -32,71 -71,71 -39,0 -71,-32 -71,-71 0,-39 32,-70 71,-70 39,0 71,31 71,70l47 0c0,-65 -52,-118 -118,-118 -65,0 -118,53 -118,118 0,65 53,118 118,118 66,0 118,-53 118,-118l-23 0z"/>
   <polygon id="Fill-59" class="fil7" points="4995,4034 4708,4321 4145,3759 4432,3472 "/>
   <polygon id="Fill-55" class="fil4" points="458,1019 1372,1019 1372,971 458,971 "/>
   <polygon id="Fill-60" class="fil8" points="4974,4037 4949,4012 4687,4273 4174,3761 4411,3525 4949,4062 4974,4037 4949,4012 4974,4037 4999,4012 4411,3425 4074,3761 4687,4374 5024,4037 4999,4012 "/>
   <path id="Fill-61" class="fil7" d="M4390 1857c-253,-251 -588,-390 -944,-390 -356,0 -692,139 -944,392 -251,252 -390,586 -390,940 1,735 599,1332 1335,1332 357,0 693,-140 945,-393 251,-252 389,-585 389,-939 0,-355 -139,-690 -391,-942z"/>
   <path id="Fill-62" class="fil8" d="M4378 1846l25 -25c-259,-258 -603,-401 -967,-401l-1 36 0 -36c-367,0 -712,143 -970,403 -258,258 -400,601 -400,964l34 0 -34 -1 34 1 -34 -1 26 1 -26 -1 26 1 -26 -1c1,6 12,7 36,2l-36 0c1,753 614,1366 1370,1366 367,0 712,-143 971,-403 257,-258 399,-601 399,-964 0,-364 -143,-708 -402,-966l-25 25 -25 25c246,245 381,570 381,916 0,345 -134,669 -379,915 -246,246 -572,382 -920,382 -716,0 -1299,-582 -1299,-1296l0 -10 -4 -8 -31 17 35 -1c0,-4 -1,-10 -4,-16l-31 17 35 -1 -34 1 34 2 -34 -2 34 2 -27 -1 27 1 -27 -1 27 1c0,-347 135,-671 379,-916 246,-247 572,-382 920,-382l0 -23 0 23 0 -23 0 23c347,0 672,135 918,380l25 -25z"/>
   <path id="Fill-63" class="fil9" d="M4242 3593c-438,438 -1150,438 -1588,1 -212,-211 -329,-492 -329,-791 -1,-301 116,-583 328,-795 212,-212 494,-328 795,-328 300,-1 582,116 794,327 212,211 328,492 329,791 0,301 -116,583 -329,795z"/>
   <polygon id="Fill-64" class="fil7" points="5993,4842 5494,5340 4405,4254 4904,3755 "/>
   <polygon id="Fill-65" class="fil8" points="5996,4845 5971,4820 5496,5293 4458,4257 4907,3808 5971,4870 5996,4845 5971,4820 5996,4845 6021,4820 4907,3708 4358,4257 5496,5393 6046,4845 6021,4820 "/>
   <polygon id="Fill-66" class="fil10" points="5995,4844 5496,5342 4594,4442 5093,3944 "/>
   <polygon id="Fill-67" class="fil8" points="5981,4830 5938,4853 5482,5295 4613,4429 5079,3964 5954,4837 5938,4853 5981,4830 5964,4814 5981,4830 5998,4814 5079,3897 4547,4429 5482,5362 6015,4830 5998,4814 "/>
   <path id="Fill-69" class="fil7" d="M6017 4980c0,212 -172,385 -385,385 -31,-31 -62,-62 -93,-93 129,-128 257,-256 386,-384 30,30 61,61 92,92z"/>
   <path id="Fill-70" class="fil8" d="M6020 4983l-34 14c0,193 -149,337 -342,337l-9 34 9 -35c-31,-31 -22,-25 -52,-56l-50 -2 49 2c129,-129 209,-208 337,-336l-1 -50 1 50c31,31 27,26 58,57l34 -15 -35 0 35 0 25 -25c-31,-31 -61,-59 -92,-90l-26 -27 -25 25c-128,128 -256,256 -385,384l-25 25 25 25c31,31 62,62 92,92l11 11 15 0c232,0 420,-188 421,-420l0 -15 -11 -10 -25 25z"/>
   <path id="Fill-71" class="fil10" d="M2821 3714l0 -216c0,-79 75,-144 167,-144l915 0c92,0 167,65 167,144l0 223c-177,119 -390,188 -619,188 -234,0 -451,-72 -630,-195z"/>
   <path id="Fill-72" class="fil8" d="M2869 3726l0 -240c0,-28 13,-54 36,-75 23,-20 57,-33 95,-33l915 0c38,0 72,13 95,33 23,21 36,47 36,75l0 246c25,-15 48,-31 71,-47l0 -199c0,-51 -24,-97 -61,-128 -37,-32 -86,-51 -141,-51l-915 0c-55,0 -104,19 -141,51 -37,31 -61,77 -61,128l0 191c23,17 46,34 71,49z"/>
   <path id="Fill-73" class="fil4" d="M3058 3828l0 -278c0,-69 46,-125 103,-125l568 0c57,0 104,56 104,125l0 282c-120,44 -248,67 -383,67 -138,0 -270,-25 -392,-71z"/>
   <path id="Fill-74" class="fil8" d="M3105 3853l0 -291c0,-27 9,-50 22,-66 13,-16 29,-24 46,-24l568 0c17,0 32,8 46,24 13,16 22,39 22,66l0 294c24,-8 48,-17 71,-26l0 -268c0,-42 -14,-81 -38,-111 -25,-29 -60,-49 -101,-49l-568 0c-41,0 -77,20 -101,49 -24,30 -38,69 -38,111l0 264c23,9 47,18 71,27z"/>
   <path id="Fill-75" class="fil3" d="M3458 3655c129,0 234,-105 234,-234l0 -67 -469 0 0 67c0,129 105,234 235,234z"/>
   <path id="Fill-76" class="fil8" d="M3446 3643l0 35c149,0 270,-120 270,-269l0 -102 -540 0 0 102c0,149 121,269 270,269l0 -71c-55,0 -105,-22 -141,-58 -36,-36 -58,-85 -58,-140l0 -31 398 0 0 31c0,55 -22,104 -59,140 -36,36 -85,58 -140,58l0 36z"/>
   <path id="Fill-77" class="fil2" d="M3570 3412c0,70 -56,126 -126,126 -70,0 -126,-56 -126,-126l0 -403c0,-70 56,-126 126,-126 70,0 126,56 126,126l0 403z"/>
   <path id="Fill-78" class="fil8" d="M3582 3424l-35 0c0,25 -11,47 -27,64 -17,16 -39,26 -64,26 -25,0 -48,-10 -65,-26 -16,-17 -26,-39 -26,-64l0 -403c0,-26 10,-48 26,-65 17,-16 40,-26 65,-26 25,0 47,10 64,26 16,17 27,39 27,65l0 403 70 0 0 -403c0,-90 -72,-162 -161,-162 -90,0 -162,72 -162,162l0 403c0,89 72,161 162,161 89,0 161,-72 161,-161l-35 0z"/>
   <path id="Fill-79" class="fil8" d="M3371 2414c0,172 -133,310 -298,310 -165,0 -299,-138 -299,-310 0,-171 134,-310 299,-310 165,0 298,139 298,310z"/>
   <path id="Fill-80" class="fil8" d="M3360 2403l-36 0c0,76 -30,145 -77,194 -48,50 -114,80 -186,80 -72,0 -138,-30 -186,-80 -48,-49 -77,-118 -77,-194 0,-77 29,-146 77,-195 48,-50 114,-80 186,-80 72,0 138,30 186,80 47,49 77,118 77,195l71 0c0,-95 -37,-182 -97,-244 -60,-63 -144,-102 -237,-102 -93,0 -177,39 -237,102 -60,62 -97,149 -97,244 0,94 37,181 97,243 60,63 144,102 237,102 93,0 177,-39 237,-102 60,-62 97,-149 97,-243l-35 0z"/>
   <path id="Fill-81" class="fil8" d="M3180 2751c0,109 -86,198 -191,198 -106,0 -191,-89 -191,-198 0,-110 85,-199 191,-199 105,0 191,89 191,199z"/>
   <path id="Fill-82" class="fil8" d="M3192 2739l-36 0c0,46 -17,86 -46,116 -28,29 -67,47 -109,47 -43,0 -82,-18 -110,-47 -28,-30 -46,-70 -46,-116 0,-45 18,-86 46,-116 28,-29 67,-47 110,-47 42,0 81,18 109,47 29,30 46,71 46,116l71 0c0,-64 -25,-122 -66,-165 -40,-42 -97,-69 -160,-69 -63,0 -120,27 -161,69 -41,43 -66,101 -66,165 0,64 25,123 66,165 41,42 98,69 161,69 63,0 120,-27 160,-69 41,-42 66,-101 66,-165l-35 0z"/>
   <path id="Fill-83" class="fil2" d="M3227 2586c0,109 -85,198 -191,198 -105,0 -191,-89 -191,-198 0,-110 86,-199 191,-199 106,0 191,89 191,199z"/>
   <path id="Fill-84" class="fil8" d="M3216 2598l-36 0c0,45 -18,86 -46,115 -28,30 -67,48 -110,48 -42,0 -81,-18 -109,-48 -29,-29 -46,-70 -46,-115 0,-46 17,-87 46,-116 28,-30 67,-47 109,-47 43,0 82,17 110,47 28,29 46,70 46,116l71 0c0,-65 -25,-123 -66,-165 -41,-43 -98,-69 -161,-69 -63,0 -120,26 -160,69 -41,42 -66,100 -66,165 0,64 25,122 66,164 40,43 97,69 160,69 63,0 120,-26 161,-69 41,-42 66,-100 66,-164l-35 0z"/>
   <path id="Fill-85" class="fil8" d="M3984 2751c0,109 -86,198 -192,198 -105,0 -191,-89 -191,-198 0,-110 86,-199 191,-199 106,0 192,89 192,199z"/>
   <path id="Fill-86" class="fil8" d="M3972 2739l-36 0c0,46 -17,86 -46,116 -28,29 -67,47 -109,47 -43,0 -82,-18 -110,-47 -28,-30 -46,-70 -46,-116 0,-45 18,-86 46,-116 28,-29 67,-47 110,-47 42,0 81,18 109,47 29,30 46,71 46,116l71 0c0,-64 -25,-122 -66,-165 -40,-42 -97,-69 -160,-69 -63,0 -120,27 -161,69 -41,43 -66,101 -66,165 0,64 25,123 66,165 41,42 98,69 161,69 63,0 120,-27 160,-69 41,-42 66,-101 66,-165l-35 0z"/>
   <path id="Fill-87" class="fil2" d="M3816 2776c0,235 -191,425 -427,425 -235,0 -426,-190 -426,-425l0 -341c0,-235 191,-425 426,-425 236,0 427,190 427,425l0 341z"/>
   <path id="Fill-88" class="fil8" d="M3804 2764l-36 0c0,108 -43,205 -114,276 -71,70 -168,114 -276,114 -108,0 -206,-44 -277,-114 -71,-71 -114,-168 -114,-276l0 -340c0,-108 43,-206 114,-276 71,-71 169,-114 277,-115 108,1 205,44 276,115 71,70 114,168 114,276l0 340 71 0 0 -340c0,-255 -206,-461 -461,-461 -255,0 -462,206 -462,461l0 340c0,254 207,461 462,461 255,0 461,-207 461,-461l-35 0z"/>
   <path id="Fill-89" class="fil8" d="M3773 2120l304 303 -55 55c-168,168 -440,168 -608,0l-380 -379c211,-188 536,-182 739,21z"/>
   <path id="Fill-90" class="fil8" d="M3778 2132l-26 25 279 278 -30 30c-77,77 -178,115 -279,115 -101,0 -202,-38 -279,-115l-354 -351 -51 -3 51 2c96,-85 188,-103 308,-103 129,0 257,49 356,147l25 -25 25 -25c-112,-112 -260,-168 -406,-168 -137,0 -274,49 -382,146l-28 25 406 405c91,91 210,136 329,136 119,0 239,-45 329,-136l80 -80 -328 -328 -25 25z"/>
   <path id="Fill-91" class="fil2" d="M3081 2610c0,-58 47,-105 105,-105 58,0 105,47 105,105l-210 0z"/>
   <path id="Fill-92" class="fil8" d="M3129 2622c0,-39 31,-69 69,-70 38,1 69,31 69,70l71 0c0,-78 -63,-140 -140,-140 -78,0 -140,62 -140,140l71 0 0 0z"/>
   <polygon id="Fill-93" class="fil8" points="3294,2953 3455,2953 3455,2883 3294,2883 "/>
   <path id="Fill-94" class="fil8" d="M4558 2800l-35 0c0,297 -120,565 -315,759 -195,194 -463,314 -760,314 -297,0 -566,-120 -761,-314 -194,-194 -315,-462 -315,-759 0,-296 121,-564 315,-759 195,-194 464,-314 761,-314 297,0 565,120 760,314 195,195 315,463 315,759l71 0c0,-632 -513,-1144 -1146,-1144 -633,0 -1147,512 -1147,1144 0,632 514,1144 1147,1144 633,0 1146,-512 1146,-1144l-36 0z"/>
   <ellipse id="Oval-15-Copy" class="fil11" cx="6012" cy="3343" rx="567" ry="566"/>
   <path id="Fill-1_35" class="fil4" d="M6591 3360l-35 0c0,145 -59,276 -154,371 -96,95 -227,154 -372,154 -146,0 -277,-59 -372,-154 -95,-95 -154,-226 -154,-371 0,-145 59,-276 154,-371 95,-95 226,-153 372,-153 145,0 276,58 372,153 95,95 154,226 154,371l70 0c0,-329 -267,-595 -596,-595 -330,0 -597,266 -597,595 0,329 267,596 597,596 329,0 596,-267 596,-596l-35 0z"/>
   <ellipse id="Oval-15" class="fil2" cx="6012" cy="1951" rx="567" ry="566"/>
   <path id="Fill-4" class="fil4" d="M6579 1945l-35 0c0,145 -59,276 -154,371 -96,95 -227,154 -372,154 -145,0 -277,-59 -372,-154 -95,-95 -154,-226 -154,-371 0,-145 59,-276 154,-371 95,-95 227,-154 372,-154 145,0 276,59 372,154 95,95 154,226 154,371l71 0c0,-329 -268,-596 -597,-596 -330,0 -597,267 -597,596 0,329 267,596 597,596 329,0 597,-267 597,-596l-36 0z"/>
   <path id="Fill-12_36" class="fil4" d="M5867 1773c-43,0 -76,14 -101,42 -25,29 -37,67 -37,117 0,50 12,90 36,117 23,28 57,42 101,42 27,0 58,-5 93,-15l0 40c-27,10 -60,15 -100,15 -57,0 -101,-18 -132,-52 -31,-35 -46,-84 -46,-148 0,-40 7,-75 22,-105 15,-30 36,-53 65,-69 28,-16 61,-25 99,-25 41,0 77,8 107,23l-19 38c-29,-13 -59,-20 -88,-20z"/>
   <path id="Fill-14" class="fil4" d="M6265 1738l49 0 -140 387 -45 0 -139 -387 48 0 89 251c10,28 19,56 25,84 6,-29 14,-57 25,-86l88 -249z"/>
   <polygon id="Fill-16" class="fil4" points="6136,3064 5916,3063 5807,3171 5807,3582 6186,3582 6186,3063 6136,3063 6138,3535 5855,3535 5855,3191 5935,3110 6137,3110 "/>
   <polygon id="Fill-18" class="fil4" points="5855,3228 5973,3228 5973,3110 5926,3110 5926,3181 5855,3181 "/>
   <polygon id="Fill-20" class="fil4" points="6051,3377 5996,3431 5942,3377 5909,3410 5996,3498 6084,3410 6051,3377 "/>
   <polygon id="Fill-22" class="fil4" points="5973,3441 6020,3441 6020,3299 5973,3299 "/>
   <path id="Fill-1_37" class="fil5" d="M3575 5438c-213,0 -387,-174 -387,-387 0,-214 174,-387 387,-387 214,0 388,173 388,387 0,213 -174,387 -388,387z"/>
   <g>
    <path id="Fill-3_38" class="fil4" d="M3575 4699c195,0 353,158 353,352 0,194 -158,351 -353,351 -194,0 -352,-157 -352,-351 0,-194 158,-352 352,-352l0 0zm-423 352c0,233 190,422 423,422 234,0 424,-189 424,-422 0,-234 -190,-423 -424,-423 -233,0 -423,189 -423,423z"/>
   </g>
   <path id="Fill-6_39" class="fil6" d="M3427 5001c0,82 66,149 148,149 83,0 149,-67 149,-149 0,-82 -66,-148 -149,-148 -82,0 -148,66 -148,148z"/>
   <path id="Fill-8_40" class="fil4" d="M3427 5001l-36 0c0,102 83,184 184,184 102,0 184,-82 184,-184 0,-101 -82,-183 -184,-184 -101,1 -184,83 -184,184l71 0c0,-31 13,-59 33,-80 21,-20 49,-33 80,-33 32,0 60,13 80,33 21,21 34,49 34,80 0,32 -13,60 -34,80 -20,21 -48,33 -80,33 -31,0 -59,-12 -80,-33 -20,-20 -33,-48 -33,-80l-35 0z"/>
   <path id="Fill-10_41" class="fil6" d="M3464 5166l223 0c82,0 149,66 149,148l0 13c-68,63 -160,103 -261,103 -100,0 -192,-40 -260,-103l0 -13c0,-82 67,-148 149,-148z"/>
   <path id="Fill-12_42" class="fil4" d="M3464 5166l0 35 223 0c31,0 59,13 80,34 21,20 33,48 33,79l0 13 0 -16 11 -10c-62,58 -144,93 -236,93 -91,0 -174,-35 -235,-93l11 13 0 13 0 -13c0,-31 12,-59 33,-79 20,-21 48,-34 80,-34l0 -70c-102,0 -184,82 -184,183l0 13 0 15 11 10c74,70 174,113 284,113 111,0 211,-43 285,-113l11 -10 0 -28c0,-101 -82,-183 -184,-183l-223 0 0 35z"/>
  </g>
 </g>
</svg>
