<?xml version="1.0" encoding="UTF-8"?>
<!DOCTYPE svg PUBLIC "-//W3C//DTD SVG 1.1//EN" "http://www.w3.org/Graphics/SVG/1.1/DTD/svg11.dtd">
<!-- Creator: CorelDRAW X8 -->
<svg xmlns="http://www.w3.org/2000/svg" xml:space="preserve" width="66.1458mm" height="66.1458mm" version="1.1" style="shape-rendering:geometricPrecision; text-rendering:geometricPrecision; image-rendering:optimizeQuality; fill-rule:evenodd; clip-rule:evenodd"
viewBox="0 0 6615 6615"
 xmlns:xlink="http://www.w3.org/1999/xlink">
 <defs>
  <style type="text/css">
   <![CDATA[
    .str0 {stroke:#8DC4F3;stroke-width:21.17}
    .str2 {stroke:#8DC4F3;stroke-width:52.92}
    .str4 {stroke:#8DC4F3;stroke-width:19.84}
    .str3 {stroke:#8DC4F3;stroke-width:22.78}
    .str1 {stroke:#656C8A;stroke-width:63.88}
    .str6 {stroke:#8DC4F3;stroke-width:21.17;stroke-linecap:square}
    .str5 {stroke:#8DC4F3;stroke-width:26.46;stroke-linecap:square}
    .fil8 {fill:none}
    .fil7 {fill:#42CDAD}
    .fil9 {fill:#656C8A}
    .fil2 {fill:#8DC4F3}
    .fil1 {fill:#CCE3F7}
    .fil11 {fill:#D7EBF8}
    .fil10 {fill:#E4E5EF}
    .fil5 {fill:#E8F4FF}
    .fil0 {fill:#F3F9FF}
    .fil6 {fill:#F5EF93}
    .fil4 {fill:#FEFEFE}
    .fil3 {fill:white}
   ]]>
  </style>
 </defs>
 <g id="Layer_x0020_1">
  <metadata id="CorelCorpID_0Corel-Layer"/>
  <g id="_584832819344">
   <ellipse id="Oval-16-Copy-2" class="fil0" cx="3246" cy="3429" rx="2640" ry="2639"/>
   <path id="Fill-4" class="fil1" d="M6180 4100l-832 0c-3,0 -653,1222 -653,1222l1876 0 0 -920c0,-167 -175,-302 -391,-302z"/>
   <path id="Fill-6" class="fil2" d="M6191 4111l0 -33 -832 0c-7,0 -12,2 -15,4 -5,3 -6,5 -8,6 -2,2 -2,3 -3,4l-2 2c-1,3 -2,5 -4,8 -15,27 -62,117 -126,238 -190,363 -523,1002 -523,1002l-26 49 1963 0 0 -971c0,-49 -13,-95 -35,-136 -33,-62 -88,-114 -155,-150 -67,-35 -148,-56 -234,-56l0 66c101,0 192,33 256,84 33,25 58,55 76,88 17,32 26,67 26,104l0 904 -1843 0 0 33 29 16c0,0 10,-19 28,-54 62,-119 218,-417 358,-685 70,-134 137,-261 186,-354 24,-47 44,-85 59,-111 7,-14 12,-24 16,-31 2,-3 3,-6 4,-7l0 -1 1 0 -18 -11 17 12 1 -1 -18 -11 17 12 -25 -19 23 21 2 -2 -25 -19 23 21 -24 -21 20 25c2,-2 3,-3 4,-4l-24 -21 20 25 -21 -26 15 30c3,-2 5,-3 6,-4l-21 -26 15 30 -15 -30 0 33c8,0 13,-2 15,-3l-15 -30 0 33 832 0 0 -33z"/>
   <path id="Fill-8" class="fil2" d="M5688 1962l0 -242 -523 0c-176,0 -318,142 -318,318l0 242 522 0c176,0 319,-142 319,-318z"/>
   <path id="Fill-10" class="fil2" d="M5677 1951l33 0 0 -274 -556 0c-193,0 -350,157 -350,350l0 275 555 0c194,0 351,-157 351,-351l-66 0c0,79 -31,150 -83,202 -52,52 -123,84 -202,84l-490 0 0 -210c0,-78 32,-150 84,-201 51,-52 122,-84 201,-84l490 0 0 209 33 0z"/>
   <path id="Fill-12" class="fil1" d="M6095 4042c0,36 -29,64 -64,64l-600 0c-36,0 -65,-28 -65,-64l0 -289c0,-36 29,-64 65,-64l600 0c35,0 64,28 64,64l0 289z"/>
   <path id="Fill-14" class="fil2" d="M6084 4031l-32 0c0,9 -4,17 -10,23 -6,6 -13,9 -22,9l-600 0c-18,0 -32,-14 -32,-32l0 -289c0,-17 14,-31 32,-31l600 0c17,0 32,14 32,31l0 289 65 0 0 -289c0,-53 -43,-97 -97,-97l-600 0c-54,0 -97,44 -97,97l0 289c0,54 43,97 97,97l600 0c54,0 97,-43 97,-97l-33 0z"/>
   <polygon id="Fill-16" class="fil2" points="5561,4086 5626,4086 5626,3840 5561,3840 "/>
   <path id="Fill-18" class="fil3" d="M6185 3395c0,156 -127,283 -283,283l-642 0c-157,0 -283,-127 -283,-283l0 -1284c0,-156 126,-283 283,-283l642 0c156,0 283,127 283,283l0 1284z"/>
   <path id="Fill-19" class="fil2" d="M6196 3406l-33 0c0,69 -28,131 -73,177 -46,45 -108,73 -177,73l-642 0c-70,0 -132,-28 -177,-73 -46,-46 -74,-108 -74,-177l0 -1284c0,-69 28,-132 74,-177 45,-45 107,-73 177,-73l642 0c69,0 131,28 177,73 45,45 73,108 73,177l0 1284 65 0 0 -1284c0,-174 -141,-315 -315,-315l-642 0c-175,0 -316,141 -316,315l0 1284c0,174 141,315 316,315l642 0c174,0 315,-141 315,-315l-32 0z"/>
   <path id="Fill-20" class="fil3" d="M4717 2585l0 82c0,116 94,210 211,210 116,0 210,-94 210,-210l0 -82 -421 0z"/>
   <path id="Fill-21" class="fil2" d="M4706 2575l-32 0 0 81c0,135 109,243 243,243 134,0 243,-108 243,-243l0 -114 -486 0 0 33 32 0 33 34 356 -2 0 49c0,49 -20,94 -52,126 -33,32 -77,52 -126,52 -49,0 -94,-20 -126,-52 -32,-32 -52,-77 -52,-126l1 -47 -34 -34 0 32 0 -32z"/>
   <path id="Fill-22" class="fil3" d="M5301 2585l0 82c0,116 95,210 211,210 116,0 210,-94 210,-210l0 -82 -421 0z"/>
   <path id="Fill-23" class="fil2" d="M5291 2575l-33 0 0 81c0,135 109,243 243,243 135,0 243,-108 243,-243l0 -114 -486 0 0 33 33 0 0 32 388 0 0 49c0,49 -20,94 -52,126 -32,32 -77,52 -126,52 -49,0 -93,-20 -126,-52 -32,-32 -52,-77 -52,-126l0 -81 -32 0 0 32 0 -32z"/>
   <polygon id="Fill-24" class="fil2" points="4847,2737 4925,2737 4925,2672 4847,2672 "/>
   <polygon id="Fill-25" class="fil2" points="5431,2737 5505,2737 5505,2672 5431,2672 "/>
   <polygon id="Fill-26" class="fil2" points="5128,2607 6058,2607 6058,2542 5128,2542 "/>
   <path id="Fill-27" class="fil3" d="M5171 2585l0 523c0,34 28,61 62,61l112 0c34,0 61,-27 61,-61l0 -30 -235 -493z"/>
   <path id="Fill-28" class="fil2" d="M5150 2585l0 523c0,52 42,94 94,94l112 0c52,0 94,-42 94,-94l0 -30 -65 0 0 30c-1,16 -13,29 -29,29l-112 0c-16,0 -29,-13 -29,-29l0 -523 -65 0z"/>
   <path id="Fill-29" class="fil2" d="M5695 1720c112,0 210,57 266,144l110 0c136,0 246,110 246,246l0 609 -173 0 0 -247c0,-96 -78,-174 -174,-174l-524 0c-175,0 -318,-142 -318,-318l0 -260 567 0z"/>
   <path id="Fill-30" class="fil2" d="M5706 1709l0 33c100,0 188,51 239,129l10 15 127 0c59,0 112,24 151,63 39,38 63,92 63,151l0 576 -109 0 0 -215c0,-114 -92,-206 -206,-206l-101 0 -263 0 -160 0c-79,0 -150,-32 -202,-84 -51,-51 -83,-122 -83,-201l0 -228 534 0 0 -65 -599 0 0 293c0,193 157,350 350,350l423 0 101 0c39,0 74,16 100,42 25,25 41,60 41,99l0 280 239 0 0 -641c0,-154 -125,-279 -279,-279l-110 0 0 32 28 -18c-63,-95 -171,-158 -294,-158l0 32z"/>
   <path id="Fill-31" class="fil3" d="M6102 2844c0,-83 68,-151 151,-151l13 0c83,0 150,68 150,151l0 184c0,83 -67,150 -150,150l-13 0c-62,0 -115,-36 -138,-89l-13 -245z"/>
   <path id="Fill-32" class="fil2" d="M6124 2855c0,-32 13,-62 35,-83 21,-22 51,-35 83,-35l13 0c33,0 62,13 84,35 21,21 34,51 34,83l0 184c0,32 -13,62 -34,83 -22,22 -51,35 -84,35l-13 0c-48,0 -90,-29 -108,-71l-60 27c29,64 93,109 168,109l13 0c101,0 184,-82 184,-183l0 -184c0,-101 -83,-183 -184,-183l-13 0c-101,0 -183,82 -183,183l65 0 0 0z"/>
   <path id="Fill-33" class="fil1" d="M5020 5138l0 0c0,-179 145,-325 325,-325l667 0c179,0 325,146 325,325l-1317 0z"/>
   <path id="Fill-34" class="fil2" d="M5042 5128c0,-81 33,-154 86,-207 53,-53 125,-86 206,-86l667 0c81,0 154,33 207,86 53,53 86,126 86,207l65 0c0,-198 -160,-358 -358,-358l-667 0c-197,0 -357,160 -357,358l65 0 0 0z"/>
   <path id="Fill-35" class="fil4" d="M5370 5077c0,98 -79,177 -177,177l-364 0c-97,0 -177,-79 -177,-177 0,-98 80,-177 177,-177l364 0c98,0 177,79 177,177z"/>
   <path id="Fill-36" class="fil2" d="M5381 5067l-32 0c0,40 -16,76 -43,102 -26,26 -62,42 -102,42l-364 0c-40,0 -76,-16 -102,-42 -26,-26 -42,-62 -42,-102 0,-41 16,-76 42,-103 26,-26 62,-42 102,-42l364 0c40,0 76,16 102,42 27,27 43,62 43,103l65 0c0,-116 -94,-210 -210,-210l-364 0c-115,0 -209,94 -209,210 0,115 94,209 209,209l364 0c116,0 210,-94 210,-209l-33 0z"/>
   <path id="Fill-37" class="fil4" d="M5759 5255l1 -3 -1 -92 -3833 0 0 95 9 17c50,81 138,95 239,95l3336 0c101,0 190,-14 239,-95l10 -17z"/>
   <path id="Fill-38" class="fil2" d="M5748 5244l29 16 1 -3 4 -7 -2 -134 -3898 0 0 137 15 25c29,48 71,77 117,92 47,16 98,19 150,19l3335 0c52,0 103,-3 150,-19 46,-15 88,-44 117,-91l10 -18 -28 -17 -30 -11 -8 13 28 16 -28 -17c-20,33 -47,51 -82,63 -35,12 -80,16 -129,16l-3335 0c-49,0 -94,-4 -129,-16 -35,-12 -62,-30 -82,-63l-28 17 28 -16 -2 -2 -36 1 37 0 -4 -63 3768 0 1 52 33 7 -32 -7 0 -1 30 11 -31 -10 31 10z"/>
   <path id="Fill-39" class="fil1" d="M4825 5256l0 3 10 14c15,20 34,36 56,47l583 0c97,0 182,-12 229,-77l10 -14 1 -2 -1 -46 -888 0 0 75z"/>
   <path id="Fill-41" class="fil4" d="M4795 5142l0 -1883c0,-49 -41,-90 -90,-90l-2690 0c-49,0 -89,41 -89,90l0 1883 2869 0z"/>
   <path id="Fill-42" class="fil2" d="M4784 5153l33 0 0 -1883c0,-67 -55,-122 -123,-122l-2689 0c-68,0 -123,55 -123,122l0 1916 2935 0 0 -33 -33 0 -31 -31 -2805 -1 0 -1851c0,-31 25,-57 57,-57l2689 0c32,0 57,26 57,57l1 1853 32 30 0 -32 0 32z"/>
   <path id="Fill-43" class="fil5" d="M3285 4783c-333,0 -602,-269 -602,-601 0,-332 269,-602 602,-602 332,0 601,270 601,602 0,332 -269,601 -601,601z"/>
   <path id="Fill-62" class="fil3" d="M5301 3494l251 0c60,0 108,-48 108,-108l-359 108z"/>
   <path id="Fill-63" class="fil2" d="M5301 3527l251 0c78,0 141,-63 141,-141l-65 0c0,21 -9,40 -22,54 -14,13 -33,22 -54,22l-251 0 0 65 0 0z"/>
   <path id="Fill-1" class="fil4" d="M108 3464c0,52 43,95 95,95l567 0c53,0 95,-43 95,-95l0 -1346c0,-52 -42,-95 -95,-95l-567 0c-52,0 -95,43 -95,95l0 1346z"/>
   <path id="Fill-3" class="fil2 str0" d="M102 3428l-16 0c0,60 51,109 112,109l573 0c62,0 112,-49 112,-109l0 -1330c0,-60 -50,-109 -112,-109l-573 0c-61,0 -112,49 -112,109l0 1330 32 0 0 -1330c0,-21 9,-41 24,-55 14,-14 34,-23 56,-23l573 0c22,0 42,9 57,23 14,14 23,34 23,55l0 1330c0,21 -9,41 -23,55 -15,14 -35,23 -57,23l-573 0c-22,0 -42,-9 -56,-23 -15,-14 -24,-34 -24,-55l-16 0z"/>
   <polygon id="Fill-6_0" class="fil1" points="194,3299 779,3299 779,2261 194,2261 "/>
   <polygon id="Fill-8_1" class="fil2" points="411,3407 519,3407 519,3364 411,3364 "/>
   <polygon id="Fill-9" class="fil2" points="476,2196 519,2196 519,2153 476,2153 "/>
   <path id="Fill-68" class="fil4" d="M3807 3568c160,-219 255,-488 255,-780 0,-733 -595,-1328 -1328,-1328 -733,0 -1328,595 -1328,1328 0,733 595,1327 1328,1327 291,0 560,-94 778,-252l403 108 -108 -403z"/>
   <path id="Fill-69" class="fil6" d="M3865 2787c0,624 -507,1131 -1132,1131 -625,0 -1132,-507 -1132,-1131 0,-625 507,-1132 1132,-1132 625,0 1132,507 1132,1132z"/>
   <path id="Fill-70" class="fil7" d="M1904 3829l0 -137c0,-121 111,-220 249,-220l1091 0c138,0 249,99 249,220l0 186c-216,151 -478,240 -762,240 -313,0 -600,-108 -827,-289z"/>
   <path id="Stroke-71" class="fil8 str1" d="M1904 3829l0 -137c0,-121 111,-220 249,-220l1091 0c138,0 249,99 249,220l0 186"/>
   <polygon id="Fill-72" class="fil4" points="2906,3474 2697,3595 2488,3474 2488,3018 2906,3018 "/>
   <polyline id="Stroke-73" class="fil8 str1" points="2906,3474 2697,3595 2488,3474 2488,3018 2906,3018 2906,3474 "/>
   <polygon id="Fill-74" class="fil2" points="2445,3763 2689,3602 2464,3472 "/>
   <polyline id="Stroke-75" class="fil8 str1" points="2445,3763 2689,3602 2464,3472 2445,3763 "/>
   <polygon id="Fill-76" class="fil2" points="2949,3763 2705,3624 2929,3472 "/>
   <polyline id="Stroke-77" class="fil8 str1" points="2949,3763 2705,3624 2929,3472 2949,3763 "/>
   <path id="Fill-78" class="fil4" d="M3295 2859c0,53 -43,96 -96,96l-8 0c-54,0 -97,-43 -97,-96l0 -177c0,-54 43,-97 97,-97l8 0c53,0 96,43 96,97l0 177z"/>
   <path id="Stroke-79" class="fil8 str1" d="M3295 2859c0,53 -43,96 -96,96l-8 0c-54,0 -97,-43 -97,-96l0 -177c0,-54 43,-97 97,-97l8 0c53,0 96,43 96,97l0 177"/>
   <path id="Fill-80" class="fil4" d="M3184 2880c0,270 -219,489 -488,489 -270,0 -489,-219 -489,-489l0 -390c0,-270 219,-489 489,-489 269,0 488,219 488,489l0 390z"/>
   <path id="Stroke-81" class="fil8 str1" d="M3184 2880c0,270 -219,489 -488,489 -270,0 -489,-219 -489,-489l0 -390c0,-270 219,-489 489,-489 269,0 488,219 488,489l0 390"/>
   <path id="Fill-82" class="fil9" d="M2519 1980c-79,0 -149,40 -189,102l-78 0c-96,0 -175,78 -175,175l0 842 123 0 0 -585c0,-68 56,-124 124,-124l791 0c125,0 226,-101 226,-226l0 -184 -822 0z"/>
   <path id="Stroke-83" class="fil8 str1" d="M2519 1980c-79,0 -149,40 -189,102l-78 0c-96,0 -175,78 -175,175l0 842 123 0 0 -585c0,-68 56,-124 124,-124l791 0c125,0 226,-101 226,-226l0 -184 -822 0"/>
   <path id="Fill-84" class="fil4" d="M2205 2585c-49,5 -128,46 -128,96l0 176c0,50 79,91 128,96l0 -368z"/>
   <path id="Stroke-85" class="fil8 str1" d="M2205 2585c-49,5 -128,46 -128,96l0 176c0,50 79,91 128,96l0 -368"/>
   <path id="Fill-86" class="fil4" d="M2596 3061c24,41 62,68 106,68 43,0 82,-27 105,-68l-211 0z"/>
   <path id="Stroke-87" class="fil8 str1" d="M2596 3061c24,41 62,68 106,68 43,0 82,-27 105,-68"/>
   <path id="Fill-88" class="fil4" d="M2229 2585l0 79c0,111 90,202 202,202 111,0 202,-91 202,-202l0 -79 -404 0z"/>
   <path id="Stroke-89" class="fil8 str1" d="M2229 2585l0 79c0,111 90,202 202,202 111,0 202,-91 202,-202l0 -79 -404 0"/>
   <path id="Fill-90" class="fil4" d="M2791 2585l0 79c0,111 91,202 202,202 112,0 203,-91 203,-202l0 -79 -405 0z"/>
   <path id="Stroke-91" class="fil8 str1" d="M2791 2585l0 79c0,111 91,202 202,202 112,0 203,-91 203,-202l0 -79 -405 0"/>
   <line id="Stroke-92" class="fil8 str1" x1="2498" y1="2693" x2="2423" y2= "2693" />
   <line id="Stroke-93" class="fil8 str1" x1="2992" y1="2693" x2="2921" y2= "2693" />
   <line id="Stroke-94" class="fil8 str1" x1="2640" y1="2585" x2="2825" y2= "2585" />
   <line id="Stroke-95" class="fil8 str1" x1="2683" y1="3732" x2="2683" y2= "4125" />
   <path id="Stroke-96" class="fil8 str1" d="M3807 3568c160,-219 255,-488 255,-780 0,-733 -595,-1328 -1328,-1328 -733,0 -1328,595 -1328,1328 0,733 595,1327 1328,1327 291,0 560,-94 778,-252l403 108 -108 -403z"/>
   <path id="Fill-101" class="fil10" d="M1446 5017c0,26 -21,47 -48,47l-1309 0c-26,0 -48,-21 -48,-47l0 -1095c0,-26 22,-47 48,-47l1309 0c27,0 48,21 48,47l0 1095z"/>
   <path id="Stroke-102" class="fil8 str2" d="M1446 5017c0,26 -21,47 -48,47l-1309 0c-26,0 -48,-21 -48,-47l0 -1095c0,-26 22,-47 48,-47l1309 0c27,0 48,21 48,47l0 1095z"/>
   <path id="Fill-103" class="fil4" d="M1535 5017c0,26 -21,47 -47,47l-1310 0c-26,0 -47,-21 -47,-47l0 -1095c0,-26 21,-47 47,-47l1310 0c26,0 47,21 47,47l0 1095z"/>
   <path id="Fill-104" class="fil1" d="M131 4058l0 -136c0,-26 21,-47 47,-47l1310 0c26,0 47,21 47,47l0 136 -1404 0z"/>
   <polygon id="Fill-105" class="fil1" points="679,4327 774,4327 774,4231 679,4231 "/>
   <polygon id="Fill-106" class="fil1" points="869,4327 965,4327 965,4231 869,4231 "/>
   <polygon id="Fill-107" class="fil1" points="1060,4327 1155,4327 1155,4231 1060,4231 "/>
   <polygon id="Fill-108" class="fil1" points="1250,4327 1345,4327 1345,4231 1250,4231 "/>
   <polygon id="Fill-109" class="fil1" points="298,4517 393,4517 393,4422 298,4422 "/>
   <polygon id="Fill-110" class="fil1" points="488,4517 584,4517 584,4422 488,4422 "/>
   <polygon id="Fill-111" class="fil1" points="679,4517 774,4517 774,4422 679,4422 "/>
   <polygon id="Fill-112" class="fil1" points="869,4517 965,4517 965,4422 869,4422 "/>
   <polygon id="Fill-113" class="fil1" points="1060,4517 1155,4517 1155,4422 1060,4422 "/>
   <polygon id="Stroke-114" class="fil8 str3" points="1060,4517 1155,4517 1155,4422 1060,4422 "/>
   <polygon id="Fill-115" class="fil1" points="1250,4517 1345,4517 1345,4422 1250,4422 "/>
   <polygon id="Fill-116" class="fil1" points="298,4707 393,4707 393,4612 298,4612 "/>
   <polygon id="Fill-117" class="fil1" points="488,4707 584,4707 584,4612 488,4612 "/>
   <polygon id="Fill-118" class="fil1" points="679,4707 774,4707 774,4612 679,4612 "/>
   <polygon id="Fill-119" class="fil1" points="869,4707 965,4707 965,4612 869,4612 "/>
   <polygon id="Fill-120" class="fil1" points="1060,4707 1155,4707 1155,4612 1060,4612 "/>
   <polygon id="Fill-121" class="fil1" points="1250,4707 1345,4707 1345,4612 1250,4612 "/>
   <polygon id="Fill-122" class="fil1" points="298,4898 393,4898 393,4802 298,4802 "/>
   <polygon id="Fill-123" class="fil1" points="488,4898 584,4898 584,4802 488,4802 "/>
   <polygon id="Fill-124" class="fil1" points="679,4898 774,4898 774,4802 679,4802 "/>
   <path id="Stroke-130" class="fil8 str2" d="M1535 4537l0 480c0,26 -21,47 -47,47l-1310 0c-26,0 -47,-21 -47,-47l0 -1095c0,-26 21,-47 47,-47l1310 0c26,0 47,21 47,47l0 481 0 134z"/>
   <line id="Stroke-131" class="fil8 str2" x1="37" y1="4065" x2="1535" y2= "4065" />
   <path id="Stroke-132" class="fil8 str2" d="M274 3885l0 -54c0,-26 21,-47 46,-47l16 0c26,0 47,21 47,47l0 77c0,26 -21,47 -47,47l-16 0"/>
   <path id="Stroke-133" class="fil8 str2" d="M464 3885l0 -54c0,-26 21,-47 47,-47l15 0c26,0 47,21 47,47l0 77c0,26 -21,47 -47,47l-15 0"/>
   <path id="Stroke-134" class="fil8 str2" d="M654 3885l0 -54c0,-26 21,-47 47,-47l15 0c26,0 47,21 47,47l0 77c0,26 -21,47 -47,47l-15 0"/>
   <path id="Stroke-135" class="fil8 str2" d="M844 3885l0 -54c0,-26 21,-47 47,-47l15 0c26,0 47,21 47,47l0 77c0,26 -21,47 -47,47l-15 0"/>
   <path id="Stroke-136" class="fil8 str2" d="M1034 3885l0 -54c0,-26 21,-47 47,-47l15 0c26,0 47,21 47,47l0 77c0,26 -21,47 -47,47l-15 0"/>
   <path id="Stroke-137" class="fil8 str2" d="M1224 3885l0 -54c0,-26 21,-47 47,-47l16 0c25,0 46,21 46,47l0 77c0,26 -21,47 -46,47l-16 0"/>
   <polygon id="Fill-9_2" class="fil1" points="1038,2789 1038,2971 1248,3153 1248,2607 "/>
   <polygon id="Fill-10_3" class="fil2" points="1059,2792 1038,2792 1038,2983 1290,3201 1290,2564 1038,2782 1038,2792 1059,2792 1073,2807 1248,2656 1248,3109 1080,2964 1080,2792 1059,2792 1073,2807 "/>
   <path id="Fill-11" class="fil1" d="M1061 3151c0,35 -28,63 -63,63l-546 0c-35,0 -63,-28 -63,-63l0 -546c0,-35 28,-63 63,-63l546 0c35,0 63,28 63,63l0 546z"/>
   <path id="Fill-12_4" class="fil2" d="M1082 3150l-21 0c0,23 -19,42 -42,42l-546 0c-23,0 -42,-19 -42,-42l0 -546c0,-11 5,-22 12,-29 8,-8 18,-13 30,-13l546 0c23,0 42,19 42,42l0 546 42 0 0 -546c0,-46 -38,-84 -84,-84l-546 0c-46,0 -84,38 -84,84l0 546c0,46 38,84 84,84l546 0c46,0 84,-38 84,-84l-21 0z"/>
   <polygon id="Fill-13" class="fil3" points="649,2672 649,3030 900,2851 "/>
   <path id="Fill-1_5" class="fil4" d="M5064 560l-695 0c-36,0 -65,29 -65,65l0 439c0,36 29,65 65,65l695 0c36,0 65,-29 65,-65l0 -439c0,-36 -29,-65 -65,-65z"/>
   <path id="Fill-3_6" class="fil2 str4" d="M4301 798l0 -174c0,-15 6,-29 15,-38 10,-10 24,-16 39,-16l707 0c15,0 29,6 39,16 10,9 16,23 16,38l0 437c0,15 -6,28 -16,38 -10,9 -24,15 -39,15l-707 0c-15,0 -29,-6 -39,-15 -9,-10 -15,-23 -15,-38l0 -197 -24 0 0 197c0,42 35,77 78,77l707 0c44,0 79,-35 79,-77l0 -437c0,-43 -35,-78 -79,-78l-707 0c-43,0 -78,35 -78,78l0 174 24 0z"/>
   <path id="Fill-6_7" class="fil2 str4" d="M5060 628l-274 235c-19,17 -44,26 -69,26 -26,0 -50,-9 -70,-26l-274 -235 -15 17 274 236c24,20 54,31 85,31 31,0 61,-11 85,-31l273 -236 -15 -17z"/>
   <g>
    <polygon id="Fill-8_8" class="fil2" points="4818,834 5059,1075 5075,1058 4835,817 "/>
    <path id="1" class="fil8 str4" d="M4818 834l241 241 16 -17 -240 -241m-17 17z"/>
   </g>
   <g>
    <polygon id="Fill-10_9" class="fil2" points="4599,817 4493,923 4509,939 4615,833 "/>
    <path id="1" class="fil8 str4" d="M4599 817l-106 106 16 16 106 -106m-16 -16z"/>
   </g>
   <path id="Fill-12_10" class="fil11" d="M4536 1007l-695 0c-36,0 -65,30 -65,66l0 438c0,36 29,66 65,66l695 0c36,0 66,-30 66,-66l0 -438c0,-36 -30,-66 -66,-66z"/>
   <path id="Fill-14_11" class="fil2 str4" d="M4615 1280l0 -218c0,-43 -35,-78 -77,-78l-698 0c-43,0 -77,35 -77,78l0 437c0,42 34,77 77,77l698 0c42,0 77,-35 77,-77l0 -131 -24 0 0 131c0,15 -6,28 -15,38 -10,10 -23,16 -38,16l-698 0c-15,0 -29,-6 -38,-16 -10,-10 -16,-23 -16,-38l0 -437c0,-15 6,-29 16,-38 9,-10 23,-16 38,-16l698 0c15,0 28,6 38,16 9,9 15,23 15,38l0 218 24 0z"/>
   <path id="Fill-17" class="fil2 str4" d="M4505 1062l-250 235 8 9 -8 -9c-19,17 -44,26 -69,26 -25,0 -50,-9 -69,-26l-272 -236 -15 18 272 236c23,20 53,31 84,31 31,0 61,-11 84,-31l250 -236 -15 -17z"/>
   <g>
    <polygon id="Fill-19_12" class="fil2" points="4290,1268 4531,1509 4548,1492 4307,1251 "/>
    <path id="1" class="fil8 str4" d="M4290 1268l241 241 17 -17 -241 -241m-17 17z"/>
   </g>
   <g>
    <polygon id="Fill-21_13" class="fil2" points="4057,1265 3830,1493 3847,1509 4074,1281 "/>
    <path id="1" class="fil8 str4" d="M4057 1265l-227 228 17 16 227 -228m-17 -16z"/>
   </g>
   <g>
    <polygon id="Fill-23_14" class="fil2" points="4385,790 4128,790 4128,817 4385,817 "/>
    <path id="1" class="fil8 str4" d="M4385 790l-257 0 0 27 257 0m0 -27z"/>
   </g>
   <g>
    <polygon id="Fill-27_15" class="fil2" points="4520,1319 4778,1319 4778,1292 4520,1292 "/>
    <path id="1" class="fil8 str4" d="M4520 1319l258 0 0 -27 -258 0m0 27z"/>
   </g>
   <line id="Line-5" class="fil8 str5" x1="1150" y1="4593" x2="1150" y2= "5162" />
   <rect class="fil1" y="5202" width="1732" height="379"/>
   <rect class="fil8 str0" x="11" y="5213" width="1711" height="357"/>
   <ellipse id="Oval-5" class="fil8 str0" cx="1559" cy="5391" rx="108" ry="105"/>
   <line id="Line-7" class="fil8 str6" x1="1548" y1="5339" x2="1548" y2= "5402" />
   <line id="Line-8" class="fil8 str6" x1="1548" y1="5402" x2="1613" y2= "5402" />
   <line id="Line-6" class="fil8 str6" x1="466" y1="5297" x2="1353" y2= "5297" />
   <line id="Line-6-Copy" class="fil8 str6" x1="466" y1="5360" x2="1353" y2= "5360" />
   <line id="Line-6-Copy-2" class="fil8 str6" x1="466" y1="5423" x2="858" y2= "5423" />
   <line id="Line-6-Copy-3" class="fil8 str6" x1="964" y1="5423" x2="1356" y2= "5423" />
   <line id="Line-6-Copy-4" class="fil8 str6" x1="466" y1="5486" x2="748" y2= "5486" />
   <line id="Line-6-Copy-5" class="fil8 str6" x1="834" y1="5486" x2="1116" y2= "5486" />
   <line id="Line-6-Copy-6" class="fil8 str6" x1="1180" y1="5486" x2="1354" y2= "5486" />
   <rect class="fil3" y="5202" width="390" height="379"/>
   <rect class="fil8 str0" x="11" y="5213" width="368" height="357"/>
   <ellipse class="fil5 str0" cx="206" cy="5402" rx="119" ry="116"/>
   <circle id="Oval-6" class="fil2 str0" cx="206" cy="5381" r="32"/>
   <ellipse id="Oval-7" class="fil2" cx="206" cy="5486" rx="76" ry="74"/>
  </g>
 </g>
</svg>
