<?xml version="1.0" encoding="UTF-8"?>
<!DOCTYPE svg PUBLIC "-//W3C//DTD SVG 1.1//EN" "http://www.w3.org/Graphics/SVG/1.1/DTD/svg11.dtd">
<!-- Creator: CorelDRAW X8 -->
<svg xmlns="http://www.w3.org/2000/svg" xml:space="preserve" width="66.1458mm" height="66.1458mm" version="1.1" style="shape-rendering:geometricPrecision; text-rendering:geometricPrecision; image-rendering:optimizeQuality; fill-rule:evenodd; clip-rule:evenodd"
viewBox="0 0 6615 6615"
 xmlns:xlink="http://www.w3.org/1999/xlink">
 <defs>
  <style type="text/css">
   <![CDATA[
    .str2 {stroke:#8DC4F3;stroke-width:13.23}
    .str0 {stroke:#656C8A;stroke-width:52.92}
    .str1 {stroke:white;stroke-width:63.75}
    .fil9 {fill:none}
    .fil8 {fill:#42CDAD}
    .fil6 {fill:#656C8A}
    .fil2 {fill:#8DC4F3}
    .fil1 {fill:#CCE3F7}
    .fil10 {fill:#DBE8F0}
    .fil4 {fill:#E8F4FF}
    .fil0 {fill:#F3F9FF}
    .fil7 {fill:#F5EF93}
    .fil3 {fill:#FEFEFE}
    .fil5 {fill:white}
   ]]>
  </style>
 </defs>
 <g id="Layer_x0020_1">
  <metadata id="CorelCorpID_0Corel-Layer"/>
  <g id="Homepage">
   <g id="Jobsoid_Homepage_illustration-check-Copy">
    <g id="Hire-card-illustration">
     <g>
      <ellipse id="Oval-16-Copy" class="fil0" cx="3510" cy="3307" rx="3063" ry="3058"/>
      <path id="Fill-1" class="fil1" d="M5494 5497c0,68 -56,124 -125,124l-3728 0c-69,0 -124,-56 -124,-124l0 -2548c0,-69 55,-125 124,-125l3728 0c69,0 125,56 125,125l0 2548z"/>
      <path id="Fill-3" class="fil2" d="M5494 5497l-46 0c0,43 -35,79 -79,79l-3728 0c-44,0 -79,-36 -79,-79l0 -2548c0,-44 35,-79 79,-80l3728 0c44,1 79,36 79,80l0 2548 91 0 0 -2548c0,-94 -76,-170 -170,-170l-3728 0c-94,0 -170,76 -170,170l0 2548c0,93 76,169 170,169l3728 0c94,0 170,-76 170,-169l-45 0z"/>
      <polygon id="Fill-5" class="fil3" points="1712,5289 5299,5289 5299,3003 1712,3003 "/>
      <rect id="Rectangle-5" class="fil4" x="2446" y="4483" width="1945" height="220"/>
      <rect id="Rectangle-5-Copy-2" class="fil1" x="2446" y="4860" width="1945" height="220"/>
      <path id="Fill-7" class="fil3" d="M6177 5612l2 -4 -2 -128 -5344 0 0 132 14 24c68,111 191,131 331,131l4654 0c140,0 263,-20 331,-131l14 -24z"/>
      <path id="Fill-8" class="fil2" d="M6177 5612l39 22 3 -4 5 -11 -3 -184 -5433 0 0 189 20 35c40,66 99,106 163,127 65,22 135,26 207,26l4654 0c72,0 142,-4 207,-26 64,-21 123,-61 163,-126l14 -26 -39 -22 -43 -15 -10 17 39 22 -39 -22c-29,46 -65,70 -114,87 -49,16 -110,21 -178,21l-4654 0c-68,0 -129,-5 -178,-21 -49,-17 -86,-43 -114,-88l-39 23 39 -23 -7 -10 -46 9 46 -9 0 -78 5253 0 2 72 45 11 -44 -11 42 15 -42 -15 42 15z"/>
      <path id="Fill-9" class="fil2" d="M3142 5480l0 17c0,31 25,56 56,56l614 0c31,0 56,-25 56,-56l0 -17 -726 0z"/>
      <path id="Fill-29" class="fil2" d="M6108 4389l-45 0c0,185 -75,352 -197,474 -121,121 -289,196 -474,196 -186,0 -353,-75 -475,-196 -121,-122 -197,-289 -197,-474 0,-186 76,-353 197,-474 122,-122 289,-197 475,-197 185,0 353,75 474,197 122,121 197,288 197,474l90 0c0,-421 -341,-761 -761,-761 -421,0 -762,340 -762,761 0,420 341,760 762,760 420,0 761,-340 761,-760l-45 0z"/>
      <path id="Fill-28" class="fil5" d="M5392 5069c-376,0 -681,-305 -681,-680 0,-376 305,-681 681,-681 376,0 681,305 681,681 0,375 -305,680 -681,680z"/>
      <polygon id="Fill-40" class="fil2" points="5398,4009 5500,4216 5729,4250 5564,4411 5603,4639 5398,4531 5193,4639 5232,4411 5066,4250 5295,4216 "/>
      <g id="Group-50">
       <path id="Fill-71" class="fil6" d="M5031 2603l-61 0c0,400 -163,762 -425,1024 -263,263 -625,425 -1026,425 -400,0 -763,-162 -1025,-425 -263,-262 -425,-624 -425,-1024 0,-400 162,-762 425,-1024 262,-262 625,-424 1025,-424 401,0 763,162 1026,424 262,262 425,624 425,1024l122 0c0,-867 -704,-1570 -1573,-1570 -868,0 -1572,703 -1572,1570 0,868 704,1571 1572,1571 869,0 1573,-703 1573,-1571l-61 0z"/>
       <path id="Fill-48" class="fil3" d="M5025 2603c0,831 -674,1504 -1506,1504 -831,0 -1506,-673 -1506,-1504 0,-830 675,-1504 1506,-1504 832,0 1506,674 1506,1504z"/>
       <path id="Fill-49" class="fil7" d="M4834 2603c0,725 -589,1313 -1315,1313 -725,0 -1314,-588 -1314,-1313 0,-725 589,-1312 1314,-1312 726,0 1315,587 1315,1312z"/>
       <path id="Fill-50" class="fil6" d="M4027 3098c0,248 -201,449 -449,449l-189 0c-248,0 -449,-201 -449,-449l0 -814c0,-247 201,-448 449,-448l189 0c248,0 449,201 449,448l0 814z"/>
       <path id="Fill-51" class="fil6" d="M4027 3098l-42 0c0,113 -45,214 -119,288 -74,74 -175,119 -288,119l-189 0c-112,0 -214,-45 -288,-119 -73,-74 -119,-175 -119,-288l0 -814c0,-112 46,-213 119,-287 74,-74 176,-119 288,-119l189 0c113,0 214,45 288,119 74,74 119,175 119,287l0 814 84 0 0 -814c0,-270 -220,-489 -491,-489l-189 0c-271,0 -490,219 -490,489l0 814c0,271 219,490 490,490l189 0c271,0 491,-219 491,-490l-42 0z"/>
       <path id="Fill-52" class="fil8" d="M3510 3157l0 628c176,0 323,124 360,289 212,-51 406,-144 574,-272 -143,-376 -508,-645 -934,-645z"/>
       <path id="Fill-53" class="fil6" d="M4486 3803c-23,18 -46,35 -69,52 -48,-132 -125,-251 -223,-349 -174,-173 -413,-280 -677,-280l0 -42 -41 0 0 -42 41 0c440,1 817,275 969,661l0 0zm-969 -619l-41 0 0 670 41 0c91,0 173,36 232,96 43,43 75,98 88,160 28,-6 55,-12 81,-19 -41,-183 -205,-320 -401,-320l0 41 42 0 0 -628 -42 0 0 42 0 -42z"/>
       <path id="Fill-54" class="fil8" d="M3118 4059c42,-157 187,-274 358,-274l0 -628c-413,0 -769,252 -921,610 163,133 354,234 563,292z"/>
       <path id="Fill-55" class="fil6" d="M3145 4097c15,-56 45,-107 85,-147 60,-60 142,-96 232,-96l42 0 0 -712 -42 0c-426,1 -792,257 -953,624 22,19 44,37 67,55 48,-119 120,-226 210,-315 173,-173 412,-280 676,-281l0 -41 -41 0 0 628 41 0 0 -41c-190,0 -350,129 -397,304 26,8 53,15 80,22z"/>
       <path id="Fill-56" class="fil2" d="M4101 3995l0 -104c0,-350 -284,-634 -635,-634 -350,0 -634,284 -634,634l0 62c205,101 436,158 681,158 208,0 407,-42 588,-116z"/>
       <path id="Fill-57" class="fil6" d="M4149 4009l0 -86c0,-373 -303,-675 -676,-675 -374,0 -676,302 -676,675l0 40c27,15 55,29 83,41l0 -81c0,-164 66,-311 174,-419 107,-107 255,-173 419,-173 164,0 312,66 419,173 108,108 174,255 174,419l0 120c28,-11 56,-22 83,-34z"/>
       <path id="Fill-58" class="fil3" d="M4191 2662c0,106 -87,192 -193,192l-1029 0c-106,0 -192,-86 -192,-192 0,-106 86,-192 192,-192l1029 0c106,0 193,86 193,192z"/>
       <path id="Fill-59" class="fil6" d="M4191 2662l-42 0c0,41 -17,79 -44,106 -28,27 -65,44 -107,44l-1029 0c-41,0 -79,-17 -106,-44 -28,-27 -44,-65 -44,-106 0,-42 16,-79 44,-107 27,-27 65,-44 106,-44l1029 0c42,0 79,17 107,44 27,28 44,65 44,107l83 0c0,-129 -105,-234 -234,-234l-1029 0c-129,0 -233,105 -234,234 1,129 105,233 234,233l1029 0c129,0 234,-104 234,-233l-41 0z"/>
       <path id="Fill-60" class="fil3" d="M3470 3564c-111,0 -201,-90 -201,-200l0 -1074c0,-110 90,-200 201,-200 111,0 201,90 201,200l0 1074c0,110 -90,200 -201,200z"/>
       <path id="Fill-61" class="fil6" d="M3470 3564l0 -41c-44,0 -83,-18 -112,-47 -29,-29 -47,-68 -47,-112l0 -1074c0,-44 18,-83 47,-112 29,-29 68,-47 112,-47 44,0 84,18 113,47 29,29 46,68 46,112l0 1074c0,44 -17,83 -46,112 -29,29 -69,47 -113,47l0 83c134,0 242,-109 242,-242l1 -1074c-1,-133 -109,-242 -243,-242 -134,0 -242,109 -242,242l0 1074c0,133 108,242 242,242l0 -42z"/>
       <path id="Fill-62" class="fil3" d="M4027 1930l0 814c0,248 -201,449 -449,449l-189 0c-248,0 -449,-201 -449,-449l0 -814 1087 0z"/>
       <path id="Fill-63" class="fil6" d="M3985 1930l0 814c0,113 -45,214 -119,288 -74,74 -175,119 -288,119l-189 0c-112,0 -214,-45 -288,-119 -73,-74 -119,-175 -119,-288l0 -814 -83 0 0 814c0,271 219,490 490,490l189 0c271,0 491,-219 491,-490l0 -814 -83 0 -1 0z"/>
       <path id="Fill-64" class="fil6" d="M3578 1482l-189 0c-248,0 -449,201 -449,448l0 537c225,-20 438,-229 544,-528 106,299 319,508 543,528l0 -537c0,-247 -201,-448 -449,-448z"/>
       <path id="Fill-65" class="fil6" d="M3578 1482l0 -41 -189 0c-271,0 -490,219 -490,489l0 583 45 -4c124,-12 242,-74 341,-172 100,-97 183,-229 238,-384l-39 97 -39 -97c54,155 137,287 237,384 100,98 217,160 341,172l46 4 0 -583c0,-270 -220,-489 -491,-489l0 83c113,0 214,45 288,119 74,74 119,175 120,287l1 491 40 46 -34 -44c-100,-9 -163,-58 -253,-145 -89,-87 -166,-209 -217,-353l-39 -110 -39 110c-51,144 -128,266 -218,353 -89,87 -148,136 -248,145l-39 44 41 -44 1 -493c0,-112 46,-213 119,-287 74,-74 176,-119 288,-119l189 0 0 -42z"/>
       <path id="Fill-66" class="fil3" d="M3117 2587c0,-45 53,-82 118,-82 65,0 118,37 118,82l-236 0z"/>
       <path id="Fill-67" class="fil6" d="M3158 2587c0,-3 1,-6 4,-10 3,-7 12,-15 25,-21 12,-6 29,-10 48,-10 24,0 46,7 59,17 7,4 11,9 14,14 2,4 3,7 3,10l83 0c0,-19 -5,-38 -15,-53 -14,-24 -36,-41 -60,-53 -25,-12 -54,-18 -84,-18 -41,0 -78,11 -108,32 -14,10 -27,23 -37,39 -9,15 -15,34 -15,53l83 0 0 0z"/>
       <path id="Fill-68" class="fil3" d="M3564 2587c0,-45 52,-82 118,-82 65,0 118,37 118,82l-236 0z"/>
       <path id="Fill-69" class="fil6" d="M3605 2587c0,-3 1,-6 3,-10 4,-7 12,-15 25,-21 13,-6 30,-10 49,-10 24,0 46,7 59,17 7,4 11,9 14,14 2,4 3,7 3,10l83 0c0,-19 -6,-38 -15,-53 -14,-24 -36,-41 -61,-53 -25,-12 -53,-18 -83,-18 -41,0 -78,11 -108,32 -14,10 -27,23 -37,39 -9,15 -15,34 -15,53l83 0 0 0z"/>
       <path id="Fill-70" class="fil6" d="M3250 2839c0,88 71,159 159,159l83 0 0 -83 -83 0c-42,0 -76,-34 -76,-76l-83 0 0 0z"/>
      </g>
      <g id="Group-47">
       <path id="Fill-97" class="fil8" d="M4914 3380c-211,0 -381,-171 -381,-381 0,-210 170,-380 381,-380 210,0 381,170 381,380 0,210 -171,381 -381,381z"/>
       <path id="Stroke-98" class="fil9 str0" d="M5306 2999c0,217 -176,392 -392,392 -217,0 -392,-175 -392,-392 0,-216 175,-391 392,-391 216,0 392,175 392,391z"/>
       <polyline id="Stroke-99" class="fil9 str1" points="4734,3014 4819,3099 5073,2845 "/>
      </g>
     </g>
     <g id="Page-1">
      <path id="Fill-1_0" class="fil4" d="M2121 4248c0,438 -357,793 -797,793 -439,0 -796,-355 -796,-793 0,-438 357,-792 796,-792 440,0 797,354 797,792z"/>
      <path id="Fill-3_1" class="fil1" d="M862 4917l0 -159c0,-58 55,-105 123,-105l671 0c68,0 122,47 122,105l0 164c-129,87 -286,137 -454,137 -171,0 -330,-52 -462,-142z"/>
      <path id="Fill-5_2" class="fil2" d="M883 4930l0 -172c0,-22 10,-43 28,-59 19,-16 45,-26 74,-26l671 0c29,0 55,10 74,26 18,16 28,37 28,59l0 177c14,-9 27,-18 41,-27l0 -150c0,-35 -17,-67 -43,-89 -26,-22 -61,-36 -100,-36l-671 0c-39,0 -74,14 -100,36 -26,22 -43,54 -43,89l0 144c14,10 27,19 41,28z"/>
      <path id="Fill-7_3" class="fil3" d="M1036 5007l0 -203c0,-51 34,-92 76,-92l417 0c42,0 76,41 76,92l0 206c-88,32 -182,49 -281,49 -101,0 -198,-18 -288,-52z"/>
      <path id="Fill-9_4" class="fil2" d="M1056 5014l0 -210c0,-21 7,-39 18,-52 11,-13 24,-20 38,-20l417 0c14,0 27,7 38,20 11,13 18,31 18,52l0 213c13,-4 27,-9 40,-15l0 -198c0,-30 -10,-57 -27,-77 -17,-21 -41,-35 -69,-34l-417 0c-28,-1 -52,13 -69,34 -17,20 -27,47 -27,77l0 195c13,6 27,11 40,15z"/>
      <path id="Fill-11" class="fil1" d="M1320 4873c95,0 173,-77 173,-171l0 -49 -345 0 0 49c0,94 78,171 172,171z"/>
      <path id="Fill-13" class="fil2" d="M1320 4873l0 20c106,0 193,-86 193,-191l0 -69 -385 0 0 69c0,105 86,191 192,191l0 -40c-41,0 -79,-17 -107,-44 -28,-28 -45,-65 -45,-107l0 -29 304 0 0 29c0,42 -17,79 -44,107 -28,27 -66,44 -108,44l0 20z"/>
      <path id="Fill-15" class="fil3" d="M1413 4702c0,51 -41,92 -93,92 -51,0 -92,-41 -92,-92l0 -295c0,-51 41,-93 92,-93 52,0 93,42 93,93l0 295z"/>
      <path id="Fill-17" class="fil2" d="M1413 4702l-20 0c0,20 -8,38 -21,51 -13,13 -31,21 -52,21 -20,0 -38,-8 -51,-21 -13,-13 -21,-31 -21,-51l0 -295c0,-20 8,-38 21,-51 13,-14 31,-22 51,-22 21,0 39,8 52,22 13,13 21,31 21,51l0 295 40 0 0 -295c0,-62 -50,-112 -113,-112 -62,0 -112,50 -112,112l0 295c0,62 50,112 112,112 63,0 113,-50 113,-112l-20 0z"/>
      <path id="Fill-19" class="fil1" d="M1262 3964c0,125 -99,227 -220,227 -121,0 -219,-102 -219,-227 0,-125 98,-227 219,-227 121,0 220,102 220,227z"/>
      <path id="Fill-21" class="fil2" d="M1262 3964l-21 0c0,57 -22,109 -58,147 -36,37 -86,60 -141,60 -54,0 -104,-23 -140,-60 -36,-38 -59,-90 -59,-147 0,-58 23,-109 59,-147 36,-37 86,-60 140,-60 55,0 105,23 141,60 36,38 58,89 58,147l41 0c0,-68 -27,-130 -70,-174 -43,-45 -103,-73 -170,-73 -66,0 -126,28 -169,73 -43,44 -70,106 -70,174 0,68 27,129 70,174 43,45 103,73 169,73 67,0 127,-28 170,-73 43,-45 70,-106 70,-174l-20 0z"/>
      <path id="Fill-23" class="fil10" d="M1130 4211c0,81 -63,146 -140,146 -78,0 -140,-65 -140,-146 0,-80 62,-145 140,-145 77,0 140,65 140,145z"/>
      <path id="Fill-25" class="fil2" d="M1130 4211l-20 0c0,35 -14,67 -36,89 -21,23 -51,37 -84,37 -33,0 -63,-14 -85,-37 -22,-22 -35,-54 -35,-89 0,-34 13,-66 35,-88 22,-23 52,-37 85,-37 33,0 63,14 84,37 22,22 36,54 36,88l40 0c0,-45 -18,-86 -47,-116 -28,-30 -69,-49 -113,-49 -45,0 -85,19 -114,49 -29,30 -47,71 -47,116 0,46 18,87 47,117 29,30 69,49 114,49 44,0 85,-19 113,-49 29,-30 47,-71 47,-117l-20 0z"/>
      <path id="Fill-27" class="fil3" d="M1156 4098c0,80 -62,145 -140,145 -77,0 -140,-65 -140,-145 0,-80 63,-145 140,-145 78,0 140,65 140,145z"/>
      <path id="Fill-29_5" class="fil2" d="M1156 4098l-20 0c0,35 -13,66 -35,89 -22,22 -52,36 -85,36 -33,0 -63,-14 -85,-36 -22,-23 -35,-54 -35,-89 0,-35 13,-66 35,-89 22,-23 52,-36 85,-36 33,0 63,13 85,36 22,23 35,54 35,89l40 0c0,-45 -17,-87 -46,-117 -29,-29 -69,-48 -114,-48 -44,0 -85,19 -114,48 -28,30 -46,72 -46,117 0,45 18,87 46,116 29,30 70,49 114,49 45,0 85,-19 114,-49 29,-29 46,-71 46,-116l-20 0z"/>
      <path id="Fill-31" class="fil10" d="M1709 4211c0,81 -63,146 -141,146 -77,0 -140,-65 -140,-146 0,-80 63,-145 140,-145 78,0 141,65 141,145z"/>
      <path id="Fill-33" class="fil2" d="M1709 4211l-20 0c0,35 -14,67 -36,89 -22,23 -52,37 -85,37 -33,0 -63,-14 -84,-37 -22,-22 -36,-54 -36,-89 0,-34 14,-66 36,-88 21,-23 51,-37 84,-37 33,0 63,14 85,37 22,22 36,54 36,88l40 0c0,-45 -18,-86 -47,-116 -29,-30 -69,-49 -114,-49 -44,0 -84,19 -113,49 -29,30 -47,71 -47,116 0,46 18,87 47,117 29,30 69,49 113,49 45,0 85,-19 114,-49 29,-30 47,-71 47,-117l-20 0z"/>
      <path id="Fill-35" class="fil3" d="M1585 4233c0,172 -140,311 -313,311 -172,0 -312,-139 -312,-311l0 -249c0,-172 140,-311 312,-311 173,0 313,139 313,311l0 249z"/>
      <path id="Fill-37" class="fil2" d="M1585 4233l-20 0c0,81 -33,153 -86,206 -53,53 -126,86 -207,86 -81,0 -154,-33 -207,-86 -53,-53 -85,-125 -85,-206l0 -249c0,-80 32,-153 85,-206 53,-53 126,-85 207,-85 81,0 154,32 207,85 53,53 86,126 86,206l0 249 40 0 0 -249c0,-183 -149,-331 -333,-331 -183,0 -332,148 -332,331l0 249c0,183 149,331 332,331 184,0 333,-148 333,-331l-20 0z"/>
      <path id="Fill-39" class="fil1" d="M1555 3756l223 222 -41 40c-123,123 -323,123 -446,0l-278 -277c155,-138 393,-133 542,15z"/>
      <path id="Fill-41" class="fil2" d="M1555 3756l-14 14 208 208 -26 26c-58,58 -133,86 -209,86 -75,0 -151,-28 -209,-86l-266 -258 -13 9c71,-62 160,-94 250,-94 96,0 191,37 265,109l14 -14 14 -14c-81,-80 -187,-121 -293,-121 -99,0 -198,35 -277,105l-15 14 293 292c65,65 151,98 237,98 86,0 172,-33 238,-98l54 -54 -237 -236 -14 14z"/>
      <path id="Fill-43" class="fil3" d="M1058 4119c0,-42 34,-77 76,-77 43,0 77,35 77,77l-153 0z"/>
      <path id="Fill-45" class="fil2" d="M1078 4119c0,-16 6,-30 16,-40 11,-10 25,-17 40,-17 16,0 30,7 41,17 10,10 16,24 16,40l40 0c0,-53 -43,-96 -97,-96 -53,0 -96,43 -96,96l40 0z"/>
      <polygon id="Fill-47" class="fil2" points="1205,4359 1323,4359 1323,4319 1205,4319 "/>
      <path id="Fill-49_6" class="fil2 str2" d="M2139 4248l-20 0c0,219 -89,416 -233,560 -144,143 -342,231 -562,231 -219,0 -418,-88 -562,-231 -144,-144 -233,-341 -233,-560 0,-218 89,-416 233,-559 144,-144 343,-232 562,-232 220,0 418,88 562,232 144,143 233,341 233,559l40 0c0,-459 -374,-831 -835,-831 -461,0 -835,372 -835,831 0,459 374,831 835,831 461,0 835,-372 835,-831l-20 0z"/>
      <path id="Fill-50_7" class="fil4" d="M571 3833c21,0 38,16 38,35l0 215 103 102 -103 0 0 79c0,20 -17,35 -38,35l-513 0c-21,0 -38,-15 -38,-35l0 -396c0,-19 17,-35 38,-35l513 0z"/>
      <path id="Fill-51_8" class="fil2" d="M571 3833l0 20c6,0 10,2 14,5 3,3 4,6 4,10l0 224 75 73 -75 0 0 99c0,4 -1,7 -4,10 -4,3 -8,6 -14,6l-513 0c-5,0 -10,-3 -13,-6 -3,-3 -5,-6 -5,-10l0 -396c0,-4 2,-7 5,-10 3,-3 8,-5 13,-5l513 0 0 -40 -513 0c-15,0 -30,6 -40,16 -11,9 -18,24 -18,39l0 396c0,16 7,30 18,40 10,10 25,15 40,15l513 0c16,0 30,-5 41,-15 11,-10 17,-24 17,-40l0 -59 132 0 -132 -130 0 -207c0,-15 -7,-30 -17,-39 -11,-10 -25,-16 -41,-16l0 20z"/>
      <polygon id="Fill-52_9" class="fil2" points="160,3988 454,3988 454,3962 160,3962 "/>
      <polygon id="Fill-53_10" class="fil2" points="160,4068 454,4068 454,4041 160,4041 "/>
      <polygon id="Fill-54_11" class="fil2" points="160,4148 454,4148 454,4121 160,4121 "/>
     </g>
     <g id="Page-1_12">
      <path id="Fill-1_13" class="fil4" d="M1615 1473c0,360 -290,652 -648,652 -358,0 -648,-292 -648,-652 0,-361 290,-653 648,-653 358,0 648,292 648,653z"/>
      <path id="Fill-3_14" class="fil2" d="M1217 1719c0,123 -99,222 -221,222l-93 0c-122,0 -221,-99 -221,-222l0 -405c0,-123 99,-223 221,-223l93 0c122,0 221,100 221,223l0 405z"/>
      <path id="Fill-5_15" class="fil2" d="M1217 1719l-18 0c0,56 -23,107 -60,144 -36,37 -87,60 -143,60l-93 0c-56,0 -107,-23 -143,-60 -37,-37 -60,-88 -60,-144l0 -405c0,-56 23,-107 60,-144 36,-37 87,-60 143,-60l93 0c56,0 107,23 143,60 37,37 60,88 60,144l0 405 37 0 0 -405c0,-133 -107,-242 -240,-242l-93 0c-133,0 -240,109 -240,242l0 405c0,133 107,241 240,241l93 0c133,0 240,-108 240,-241l-19 0z"/>
      <path id="Fill-7_16" class="fil1" d="M966 1761l0 312c87,0 160,62 178,144 104,-25 200,-72 283,-135 -71,-187 -251,-321 -461,-321z"/>
      <path id="Fill-9_17" class="fil2" d="M1442 2070c-10,8 -20,16 -31,24 -24,-66 -62,-125 -110,-174 -86,-87 -204,-140 -335,-140l0 -19 -19 0 0 -19 19 0c216,0 402,136 476,328l0 0zm-476 -309l-19 0 0 331 19 0c45,0 86,19 116,49 21,21 37,49 44,80 12,-3 24,-5 36,-9 -20,-90 -100,-157 -196,-157l0 18 19 0 0 -312 -19 0 0 19 0 -19z"/>
      <path id="Fill-11_18" class="fil1" d="M763 2210c21,-79 92,-137 176,-137l0 -312c-204,0 -379,125 -454,303 81,67 175,117 278,146z"/>
      <path id="Fill-13_19" class="fil2" d="M781 2215c7,-29 22,-54 42,-74 30,-30 71,-49 116,-49l19 0 0 -350 -19 0c-210,0 -390,128 -469,310 10,8 20,17 30,25 24,-59 60,-113 104,-157 86,-87 204,-140 335,-140l0 -19 -19 0 0 312 19 0 0 -18c-93,0 -171,63 -194,150 12,3 24,7 36,10z"/>
      <path id="Fill-15_20" class="fil3" d="M1257 2180l0 -51c0,-174 -140,-316 -313,-316 -173,0 -313,142 -313,316l0 30c101,50 215,79 336,79 103,0 201,-21 290,-58z"/>
      <path id="Fill-17_21" class="fil2" d="M1276 2172l0 -43c0,-185 -149,-334 -332,-334 -183,0 -332,149 -332,334l0 21c13,6 25,12 38,18l0 -39c0,-82 33,-156 86,-210 53,-54 127,-87 208,-87 81,0 155,33 208,87 54,54 86,128 86,210l0 59c13,-5 26,-10 38,-16z"/>
      <path id="Fill-19_22" class="fil3" d="M1298 1502c0,52 -42,95 -95,95l-507 0c-53,0 -95,-43 -95,-95 0,-53 42,-96 95,-96l507 0c53,0 95,43 95,96z"/>
      <path id="Fill-21_23" class="fil2" d="M1298 1502l-19 0c0,21 -8,40 -22,54 -14,14 -33,22 -54,22l-507 0c-21,0 -40,-8 -54,-22 -14,-14 -22,-33 -22,-54 0,-22 8,-41 22,-55 14,-13 33,-22 54,-22l507 0c21,0 40,9 54,22 14,14 22,33 22,55l38 0c0,-63 -51,-115 -114,-115l-507 0c-63,0 -114,52 -114,115 0,63 51,114 114,114l507 0c63,0 114,-51 114,-114l-19 0z"/>
      <path id="Fill-23_24" class="fil3" d="M943 1950c-55,0 -99,-44 -99,-100l0 -533c0,-55 44,-100 99,-100 55,0 99,45 99,100l0 533c0,56 -44,100 -99,100z"/>
      <path id="Fill-25_25" class="fil2" d="M943 1950l0 -19c-22,0 -42,-9 -57,-23 -15,-15 -23,-35 -23,-58l0 -533c0,-22 8,-42 23,-57 15,-15 35,-24 57,-24 22,0 42,9 57,24 14,15 23,35 23,57l0 533c0,23 -9,43 -23,58 -15,14 -35,23 -57,23l0 38c65,0 118,-53 118,-119l0 -533c0,-65 -53,-119 -118,-119 -65,0 -118,54 -118,119l0 533c0,66 53,119 118,119l0 -19z"/>
      <path id="Fill-27_26" class="fil3" d="M1217 1138l0 405c0,123 -99,223 -221,223l-93 0c-122,0 -221,-100 -221,-223l0 -405 535 0z"/>
      <path id="Fill-29_27" class="fil2" d="M1199 1138l0 405c0,56 -23,107 -60,144 -36,37 -87,60 -143,60l-93 0c-56,0 -107,-23 -143,-60 -37,-37 -60,-88 -60,-144l0 -405 -37 0 0 405c0,133 107,241 240,241l93 0c133,0 240,-108 240,-241l0 -405 -37 0z"/>
      <path id="Fill-31_28" class="fil2" d="M996 915l-93 0c-122,0 -221,100 -221,223l0 267c110,-10 215,-114 268,-263 52,149 157,253 267,263l0 -267c0,-123 -99,-223 -221,-223z"/>
      <path id="Fill-33_29" class="fil2" d="M996 915l0 -18 -93 0c-133,0 -240,108 -240,241l0 288 20 -2c61,-6 119,-37 167,-85 49,-48 90,-114 117,-190l-17 44 -18 -44c27,76 68,142 117,190 49,48 106,79 167,85l20 2 0 -288c0,-133 -107,-241 -240,-241l0 37c56,0 107,23 143,60 37,37 60,88 60,144l0 267 0 -21 20 2c-50,-4 -100,-30 -144,-74 -45,-43 -83,-104 -108,-176l-17 -50 -18 50c-25,72 -63,133 -108,176 -44,44 -94,70 -144,74l20 -3 0 22 0 -267c0,-56 23,-107 60,-144 36,-37 87,-60 143,-60l93 0 0 -19z"/>
      <path id="Fill-35_30" class="fil3" d="M769 1465c0,-23 26,-42 58,-42 32,0 58,19 58,42l-116 0z"/>
      <path id="Fill-37_31" class="fil2" d="M787 1465c0,-2 1,-4 2,-7 2,-3 7,-7 13,-10 7,-4 15,-6 25,-6 12,0 23,4 30,9 4,2 6,5 7,7 2,3 2,5 2,7l38 0c0,-10 -3,-19 -8,-26 -6,-11 -17,-20 -29,-25 -12,-6 -26,-9 -40,-9 -20,0 -38,5 -52,15 -7,5 -13,11 -18,19 -4,7 -7,16 -7,26l37 0 0 0z"/>
      <path id="Fill-39_32" class="fil3" d="M989 1465c0,-23 26,-42 58,-42 32,0 58,19 58,42l-116 0z"/>
      <path id="Fill-41_33" class="fil2" d="M1008 1465c0,-2 0,-4 1,-7 2,-3 7,-7 14,-10 6,-4 15,-6 24,-6 13,0 24,4 30,9 4,2 6,5 8,7 1,3 2,5 2,7l37 0c0,-10 -3,-19 -7,-26 -7,-11 -17,-20 -29,-25 -12,-6 -26,-9 -41,-9 -20,0 -38,5 -52,15 -7,5 -13,11 -18,19 -4,7 -7,16 -7,26l38 0z"/>
      <path id="Fill-43_34" class="fil1" d="M855 1549l0 41c0,32 26,58 58,58l41 0c32,0 58,-26 58,-58l0 -41 -157 0z"/>
      <path id="Fill-45_35" class="fil2" d="M854 1549l-18 0 0 41c0,42 34,77 77,77l41 0c42,0 76,-35 77,-77l0 -60 -195 0 0 19 19 0 18 0c0,12 0,18 1,18 0,0 40,0 119,0l0 23c0,22 -18,39 -39,39l-41 0c-22,0 -40,-17 -40,-39l0 -41 -18 0 0 18 -1 -18z"/>
      <g id="Group-49">
       <path id="Fill-47_36" class="fil2 str2" d="M1727 1473l-18 0c0,206 -83,392 -218,527 -134,135 -319,219 -524,219 -205,0 -390,-84 -524,-219 -134,-135 -217,-321 -217,-527 0,-207 83,-393 217,-528 134,-135 319,-219 524,-219 205,0 390,84 524,219 135,135 218,321 218,528l37 0c0,-433 -349,-785 -779,-785 -430,0 -779,352 -779,785 0,433 349,784 779,784 430,0 779,-351 779,-784l-19 0z"/>
      </g>
      <path id="Fill-50_37" class="fil5" d="M1527 1310c-20,0 -35,15 -35,33l0 203 -97 96 97 0 0 74c0,19 15,34 35,34l479 0c19,0 35,-15 35,-34l0 -373c0,-18 -16,-33 -35,-33l-479 0z"/>
      <path id="Fill-52_38" class="fil2" d="M1527 1310l0 18c-5,0 -9,2 -12,5 -3,3 -5,6 -5,10l0 211 -69 69 69 0 0 93c0,4 2,7 5,10 3,3 7,5 12,5l479 0c5,0 9,-2 12,-5 3,-3 5,-6 5,-10l0 -373c0,-4 -2,-7 -5,-10 -3,-3 -7,-5 -12,-5l-479 0 0 -37 479 0c14,0 28,5 38,15 10,9 16,22 16,37l0 373c0,15 -6,28 -16,38 -10,9 -24,15 -38,15l-479 0c-14,0 -28,-6 -38,-15 -10,-10 -16,-23 -16,-38l0 -55 -123 0 123 -123 0 -195c0,-15 6,-28 16,-37 10,-10 24,-15 38,-15l0 19z"/>
      <polygon id="Fill-54_39" class="fil2" points="1637,1456 1911,1456 1911,1431 1637,1431 "/>
      <polygon id="Fill-56_40" class="fil2" points="1637,1531 1911,1531 1911,1506 1637,1506 "/>
      <polygon id="Fill-57_41" class="fil2" points="1637,1607 1911,1607 1911,1582 1637,1582 "/>
     </g>
     <g id="Page-1_42">
      <path id="Fill-1_43" class="fil4" d="M6580 1033c0,414 -334,750 -747,750 -412,0 -747,-336 -747,-750 0,-414 335,-749 747,-749 413,0 747,335 747,749z"/>
      <path id="Fill-3_44" class="fil1" d="M6332 1613l0 -51c0,-65 -68,-118 -152,-118l-215 0c0,-3 1,-6 1,-9l0 -256c0,-55 -51,-100 -114,-100l-7 0c-63,0 -114,45 -114,100l0 256c0,3 0,6 1,9l-216 0c-83,0 -151,53 -151,118l0 76c129,101 292,161 468,161 191,0 365,-70 499,-186z"/>
      <path id="Fill-5_45" class="fil2" d="M6350 1596l0 -34c0,-20 -5,-39 -14,-55 -13,-25 -35,-46 -62,-60 -27,-14 -59,-22 -94,-22l-215 0 0 19 19 2c0,-4 0,-7 0,-11l0 -256c0,-34 -15,-64 -39,-85 -24,-21 -57,-34 -93,-34l-7 0c-36,0 -69,13 -93,34 -24,21 -40,51 -40,85l0 256c0,4 1,7 1,11l19 -2 0 -19 -216 0c-45,0 -87,14 -118,38 -16,13 -28,27 -37,44 -9,16 -15,35 -15,55l0 61c13,10 25,19 38,29l0 -90c0,-13 3,-26 10,-37 9,-18 25,-33 47,-44 21,-12 47,-18 75,-18l236 0 -2 -21c0,-3 0,-5 0,-7l0 -256c0,-22 10,-41 27,-56 17,-15 41,-25 68,-25l7 0c27,0 51,10 68,25 17,15 27,34 27,56l0 256c0,2 0,4 -1,7l-2 21 236 0c38,0 72,12 96,30 12,9 21,20 27,32 7,11 10,24 10,37l0 66c13,-10 25,-21 37,-32z"/>
      <path id="Fill-7_46" class="fil1" d="M5989 1491c0,14 -11,25 -24,25l-233 0c-13,0 -25,-11 -25,-25l0 -112c0,-14 12,-25 25,-25l233 0c13,0 24,11 24,25l0 112z"/>
      <path id="Fill-9_47" class="fil2" d="M5989 1491l-18 0c0,4 -3,6 -6,6l-233 0c-3,0 -6,-2 -6,-6l0 -112c0,-4 3,-6 6,-6l233 0c3,0 6,2 6,6l0 112 37 0 0 -112c0,-24 -19,-44 -43,-44l-233 0c-24,0 -43,20 -43,44l0 112c0,24 19,44 43,44l233 0c24,0 43,-20 43,-44l-19 0z"/>
      <path id="Fill-11_48" class="fil3" d="M6141 1066c0,164 -133,297 -296,297 -164,0 -296,-133 -296,-297l0 -162c0,-164 132,-297 296,-297 163,0 296,133 296,297l0 162z"/>
      <path id="Fill-13_49" class="fil2" d="M6141 1066l-19 0c0,77 -31,147 -81,197 -50,50 -120,82 -196,82 -77,0 -146,-32 -196,-82 -50,-50 -81,-120 -81,-197l0 -162c0,-77 31,-146 81,-197 50,-50 119,-81 196,-81 76,0 146,31 196,81 50,51 81,120 81,197l0 162 37 0 0 -162c0,-175 -140,-316 -314,-316 -174,0 -315,141 -315,316l0 162c0,175 141,316 315,316 174,0 314,-141 314,-316l-18 0z"/>
      <path id="Fill-15_50" class="fil3" d="M5586 978c-32,3 -83,30 -83,62l0 75c0,32 51,59 83,62l0 -199z"/>
      <path id="Fill-17_51" class="fil2" d="M5586 978l-2 -19c-10,1 -20,4 -31,8 -16,6 -31,14 -44,26 -7,6 -13,12 -17,20 -5,8 -8,17 -8,27l0 75c0,13 6,25 13,34 10,14 25,24 41,32 15,8 31,13 46,15l21 11 0 -250 -21 2 2 19 -19 0 0 199 0 -24 21 8c-9,-3 -14,-5 -22,-8 -12,-5 -24,-12 -32,-19 -5,-4 -8,-8 -10,-11 -1,-3 -2,-6 -2,-8l0 -75c0,-3 1,-7 5,-12 5,-7 16,-15 27,-21 12,-6 25,-10 34,-10l-2 -19 -19 0 19 0z"/>
      <polygon id="Fill-19_52" class="fil2" points="5692,1006 5746,1006 5746,969 5692,969 "/>
      <polygon id="Fill-21_53" class="fil2" points="5916,1006 5970,1006 5970,969 5916,969 "/>
      <path id="Fill-22" class="fil3" d="M5781 1222c14,25 37,41 64,41 26,0 49,-16 64,-41l-128 0z"/>
      <path id="Fill-23_54" class="fil2" d="M5765 1231c8,15 19,28 33,36 14,9 30,15 47,15 17,0 33,-6 46,-15 14,-8 25,-21 34,-36l-33 -18c-5,10 -13,18 -21,23 -8,5 -17,8 -26,8 -10,0 -18,-3 -26,-8 -9,-5 -16,-13 -22,-23l-32 18 0 0z"/>
      <path id="Fill-24" class="fil2" d="M6128 682l-35 0c12,-20 16,-41 9,-59 -18,-45 -93,-58 -167,-29 -9,3 -17,7 -24,11 4,-16 4,-32 -1,-46 -21,-54 -110,-69 -198,-35 -88,35 -143,104 -124,158l-26 0c-35,0 -63,28 -63,62l0 261c1,2 2,5 4,8l83 0 0 -228c0,-3 1,-6 1,-9 78,16 165,26 258,26 92,0 180,-10 258,-26 0,3 0,6 0,9l0 228 84 0c1,-3 2,-6 3,-8l0 -261c0,-34 -28,-62 -62,-62z"/>
      <path id="Fill-25_55" class="fil2" d="M6128 682l0 -19 -35 0 28 0 -11 28c8,-19 14,-32 14,-49 0,-9 -2,-18 -5,-26 -8,-20 -23,-34 -42,-43 -18,-9 -40,-13 -64,-13 -27,0 -56,-1 -81,15 -5,4 -26,12 -30,13 -4,2 13,-5 31,-13 2,-1 0,11 -4,35 0,-7 2,-18 3,-34 -1,-10 -2,-18 -5,-24 -8,-22 -26,-39 -47,-49 -22,-11 -47,-16 -75,-16 -32,0 -66,7 -100,20 -41,16 -75,39 -99,65 -13,13 -23,27 -29,42 -7,15 -13,30 -12,46 2,10 4,18 5,28l-4 -25 22 0 -26 0c-45,0 -81,36 -81,81l0 264 1 4c1,2 2,5 3,8l5 11 115 0 -2 -233c0,-1 -5,-9 -16,-22l17 22c79,17 147,22 241,22 93,0 182,-9 262,-26l-21 4 -1 233 114 0 5 -11c1,-3 3,-6 4,-8l1 -4 0 -264c0,-45 -36,-81 -81,-81l0 37c24,0 43,20 43,44l0 261 19 0 -17 -7c-2,3 -2,5 -3,7l17 8 0 -19 -65 0 0 -209c0,-4 0,-8 0,-10l-1 -22 -22 4c-77,17 -163,26 -254,26 -91,0 -178,-9 -255,-26l-21 -4 -1 22c0,2 -1,6 -1,10l0 219 -49 1 0 -261c0,-12 5,-23 13,-31 8,-8 19,-13 31,-13l52 0 -8 -25c-2,-4 -3,-10 -3,-15 0,-9 2,-19 7,-30 8,-16 21,-33 40,-48 18,-16 42,-30 69,-40 30,-12 59,-17 86,-17 23,0 43,4 58,11 15,8 25,18 29,29 2,6 3,11 3,17 0,5 -1,11 -2,18l-13 42 39 -20c7,-4 15,-8 22,-11 25,-9 50,-14 72,-14 19,0 36,4 48,10 12,6 19,13 23,23 2,4 2,8 2,12 0,9 -3,19 -9,30l-16 28 67 0 0 -18z"/>
      <path id="Fill-26" class="fil3" d="M5800 922l0 187c0,12 9,22 21,22l40 0c12,0 22,-10 22,-22l0 -11 -83 -176z"/>
      <path id="Fill-27_56" class="fil2" d="M5781 922l0 187c0,22 18,40 40,40l40 0c23,0 41,-18 41,-40l0 -11 -38 0 0 11c0,1 -1,3 -3,3l-40 0c-1,0 -3,-2 -3,-3l0 -187 -37 0z"/>
      <polygon id="Fill-28_57" class="fil2" points="5777,1508 5815,1508 5815,1412 5777,1412 "/>
      <path id="Fill-29_58" class="fil3" d="M6103 1037c0,-33 26,-59 58,-59l5 0c33,0 59,26 59,59l0 71c0,32 -26,58 -59,58l-5 0c-23,0 -44,-14 -53,-35l-5 -94z"/>
      <path id="Fill-30" class="fil2" d="M6161 997l5 0c11,0 21,4 28,11 8,8 12,17 12,29l0 71c0,11 -4,21 -12,28 -7,7 -17,12 -28,12l-5 0c-16,0 -30,-10 -36,-24l-34 15c12,27 39,46 70,46l5 0c43,0 77,-34 77,-77l0 -71c0,-43 -34,-78 -77,-78l-5 0c-42,0 -77,35 -77,78l38 0c0,-22 17,-40 39,-40z"/>
      <path id="Fill-31_59" class="fil2 str2" d="M6596 1033l-19 0c0,207 -83,393 -218,528 -134,135 -320,219 -526,219 -205,0 -391,-84 -526,-219 -135,-135 -218,-321 -218,-528 0,-206 83,-392 218,-527 135,-135 321,-219 526,-219 206,0 392,84 526,219 135,135 218,321 218,527l38 0c0,-433 -350,-784 -782,-784 -431,0 -781,351 -781,784 0,434 350,785 781,785 432,0 782,-351 782,-785l-19 0z"/>
      <path id="Fill-32" class="fil5" d="M5302 1002c20,0 36,15 36,34l0 203 96 96 -96 0 0 74c0,19 -16,34 -36,34l-480 0c-20,0 -36,-15 -36,-34l0 -373c0,-19 16,-34 36,-34l480 0z"/>
      <path id="Fill-33_60" class="fil2" d="M5302 1002l0 19c5,0 9,2 12,5 3,3 5,6 5,10l0 210 69 70 -69 0 0 93c0,4 -2,7 -5,10 -3,3 -7,5 -12,5l-480 0c-5,0 -10,-2 -13,-5 -3,-3 -4,-6 -4,-10l0 -373c0,-4 1,-7 4,-10 3,-3 8,-5 13,-5l480 0 0 -37 -480 0c-15,0 -28,5 -38,14 -10,10 -17,23 -17,38l0 373c0,15 7,28 17,38 10,9 23,14 38,14l480 0c14,0 28,-5 38,-14 10,-10 16,-23 16,-38l0 -56 124 0 -124 -122 0 -195c0,-15 -6,-28 -16,-38 -10,-9 -24,-14 -38,-14l0 18z"/>
      <polygon id="Fill-34" class="fil2" points="4917,1149 5192,1149 5192,1124 4917,1124 "/>
      <polygon id="Fill-35_61" class="fil2" points="4917,1224 5192,1224 5192,1199 4917,1199 "/>
      <polygon id="Fill-36" class="fil2" points="4917,1299 5192,1299 5192,1274 4917,1274 "/>
     </g>
    </g>
   </g>
  </g>
 </g>
</svg>
